<?xml version="1.0" encoding="utf-8"?>
<!-- Generator: Adobe Illustrator 25.0.1, SVG Export Plug-In . SVG Version: 6.00 Build 0)  -->
<svg version="1.1" id="Layer_1" xmlns="http://www.w3.org/2000/svg" xmlns:xlink="http://www.w3.org/1999/xlink" x="0px" y="0px"
	 viewBox="0 0 100 100" style="enable-background:new 0 0 100 100;" xml:space="preserve">
<desc>Created with Sketch.</desc>
<path d="M-1161.8-513.6h-0.8v-8.8c0-4.8-4-8.8-8.8-8.8h-38.4c-4.8,0-8.8,4-8.8,8.8v8.8h-0.8c-2.2,0-4,1.8-4,4v12.8
	c0,0.4,0.4,0.8,0.8,0.8h3.2v4c0,0.4,0.4,0.8,0.8,0.8h6.4c0.4,0,0.8-0.4,0.8-0.8v-4h41.6v4c0,0.4,0.4,0.8,0.8,0.8h6.4
	c0.4,0,0.8-0.4,0.8-0.8v-4h3.2c0.4,0,0.8-0.4,0.8-0.8v-12.8C-1157.8-511.8-1159.5-513.6-1161.8-513.6z M-1217-522.4
	c0-4,3.2-7.2,7.2-7.2h38.4c4,0,7.2,3.2,7.2,7.2v8.8h-4.8v-0.8c0-5.6-5.3-5.6-8.8-5.6s-8.8,0-8.8,5.6v0.8h-8v-0.8
	c0-5.6-5.3-5.6-8.8-5.6c-3.5,0-8.8,0-8.8,5.6v0.8h-4.8V-522.4z M-1170.6-514.4v0.8h-14.4v-0.8c0-3.4,2.3-4,7.2-4
	S-1170.6-517.8-1170.6-514.4z M-1196.2-514.4v0.8h-14.4v-0.8c0-3.4,2.3-4,7.2-4S-1196.2-517.8-1196.2-514.4z M-1213-492.8h-4.8v-3.2
	h4.8V-492.8z M-1163.4-492.8h-4.8v-3.2h4.8V-492.8z M-1159.4-497.6h-3.2h-6.4h-43.2h-6.4h-3.2v-12c0-1.3,1.1-2.4,2.4-2.4h1.6h6.4h16
	h9.6h16h6.4h1.6c1.3,0,2.4,1.1,2.4,2.4V-497.6z"/>
<g>
	<path d="M-836.9-492.7h-10.5V-534h6c0,0,0,0,0,0c0.4,0,0.8-0.3,0.8-0.8c0-0.1,0-0.2,0-0.3l-2.2-8.9c-0.1-0.3-0.4-0.6-0.7-0.6h-9
		c-0.3,0-0.6,0.2-0.7,0.6l-2.2,9c-0.1,0.2,0,0.5,0.1,0.6c0.1,0.2,0.4,0.3,0.6,0.3h6v41.3h-7.5v-3h1.5c0.4,0,0.8-0.3,0.8-0.8V-510
		c0-0.4-0.3-0.8-0.8-0.8h-3.8v-3.8c0-1.7-1.3-3-3-3h-13.5c-0.9,0-1.7,0.4-2.2,1c-0.6-0.6-1.4-1-2.2-1h-13.5c-1.7,0-3,1.3-3,3v3.8
		h-3.8c-0.4,0-0.8,0.3-0.8,0.8v13.5c0,0.4,0.3,0.8,0.8,0.8h1.5v3h-7.9l-6.3-6.3v-5.7h2.5h3.5c0.4,0,0.8-0.3,0.8-0.8
		s-0.3-0.8-0.8-0.8h-2.6l1.1-5.9c0-0.2,0-0.4-0.2-0.6c-0.1-0.2-0.4-0.3-0.6-0.3h-2.4l0.8-7.3c0.2,0.1,0.4,0.1,0.7,0.1
		c1,0,2-0.5,2.5-1.4c1.7-2.9,0.9-6,0.9-6.1c-0.1-0.4-0.5-0.6-0.9-0.5c-0.1,0-3.2,0.9-4.9,3.8c-0.6,1.1-0.4,2.5,0.4,3.4l-0.9,8.1
		h-1.1l-0.9-10.3c0.7-0.5,1.1-1.2,1.4-2c0.3-0.9,0.1-1.9-0.4-2.8c-2.3-4-6.4-5.1-6.6-5.2c-0.2-0.1-0.4,0-0.6,0.1
		c-0.2,0.1-0.3,0.3-0.3,0.5c0,0.2-1.1,4.3,1.2,8.3c0.6,1.1,1.9,1.8,3.2,1.8c0.2,0,0.5,0,0.7-0.1l0.9,9.7h-2.4
		c-0.2,0-0.4,0.1-0.6,0.3c-0.1,0.2-0.2,0.4-0.2,0.6l1.1,5.9h-2.6c-0.4,0-0.8,0.3-0.8,0.8s0.3,0.8,0.8,0.8h3.5h2.5v5.7l-6.3,6.3h-6.4
		c-0.4,0-0.8,0.3-0.8,0.8s0.3,0.8,0.8,0.8h90c0.4,0,0.8-0.3,0.8-0.8S-836.5-492.7-836.9-492.7z M-852-543h7.8l1.9,7.5h-11.6
		L-852-543z M-911-523.7c0.9-1.6,2.3-2.4,3.2-2.8c0.1,1,0,2.6-0.9,4.2c-0.2,0.4-0.7,0.7-1.2,0.7c-0.2,0-0.5-0.1-0.7-0.2
		C-911.1-522.2-911.4-523-911-523.7z M-918.9-525.1c-1.4-2.5-1.3-5-1.2-6.3c1.2,0.5,3.5,1.7,4.9,4.2c0.3,0.5,0.4,1.1,0.2,1.6
		c-0.1,0.6-0.5,1-1,1.3c-0.3,0.2-0.7,0.3-1.1,0.3C-917.8-524-918.5-524.5-918.9-525.1z M-917-511.5h7.2l-1,5.2h-5.3L-917-511.5z
		 M-878.1-501.7h-16.5v-3h16.5V-501.7z M-876.6-504.7h16.5v3h-16.5V-504.7z M-875.1-516h13.5c0.8,0,1.5,0.7,1.5,1.5v8.2h-16.5v-8.2
		C-876.6-515.3-876-516-875.1-516z M-894.6-514.5c0-0.8,0.7-1.5,1.5-1.5h13.5c0.8,0,1.5,0.7,1.5,1.5v8.2h-16.5V-514.5z
		 M-899.1-509.2h3v8.2c0,0.4,0.3,0.8,0.8,0.8h18h18c0.4,0,0.8-0.3,0.8-0.8v-8.2h3v12h-43.5V-509.2z M-896.9-495.7h39v3h-39V-495.7z
		 M-908.4-492.7h-4.2v-4.2L-908.4-492.7z M-914.1-496.9v4.2h-4.2L-914.1-496.9z"/>
	<path d="M-908.9-536.2h13.5c0.4,0,0.8-0.3,0.8-0.8v-15.8c0-0.4-0.3-0.8-0.8-0.8h-6.2h-7.3c-0.4,0-0.8,0.3-0.8,0.8v10.9v4.9
		C-909.6-536.5-909.3-536.2-908.9-536.2z M-896.1-537.7h-12v-3.2c0.5,0.1,1,0.2,1.5,0.2c4.1,0,7.5-3.4,7.5-7.5c0-1.3-0.4-2.6-1-3.8
		h4V-537.7z M-908.1-552h6.2c0.9,1.1,1.3,2.4,1.3,3.8c0,3.3-2.7,6-6,6c-0.5,0-1-0.1-1.5-0.2V-552z"/>
	<path d="M-890.9-527.2h27c0.4,0,0.8-0.3,0.8-0.8v-20.2c0-0.4-0.3-0.8-0.8-0.8h-27c-0.4,0-0.8,0.3-0.8,0.8v20.2
		C-891.6-527.5-891.3-527.2-890.9-527.2z M-890.1-534.4l3.8-3.8l9.4,9.4h-13.2V-534.4z M-864.6-547.5v18.8h-10.2l-11-11
		c-0.3-0.3-0.8-0.3-1.1,0l-3.2,3.2v-10.9H-864.6z"/>
	<path d="M-872.9-534c2.9,0,5.2-2.4,5.2-5.2c0-2.9-2.4-5.2-5.2-5.2c-2.9,0-5.2,2.4-5.2,5.2C-878.1-536.3-875.8-534-872.9-534z
		 M-872.9-543c2.1,0,3.8,1.7,3.8,3.8s-1.7,3.8-3.8,3.8c-2.1,0-3.8-1.7-3.8-3.8S-874.9-543-872.9-543z"/>
</g>
<path d="M-1129.6,66.9h-2.3c0-0.1,0.1-0.1,0.1-0.2V39.2c0-0.3-0.3-0.6-0.8-0.6h-8.2v-4.1c0-0.2-0.1-0.4-0.3-0.5
	c-0.2-0.1-0.4-0.1-0.7-0.1l-12.2,3v-9.5c0-3-7.6-6.1-21.8-6.1s-21.8,3.1-21.8,6.1v9.4l-11.8-2.9c-0.2-0.1-0.5,0-0.7,0.1
	c-0.2,0.1-0.3,0.3-0.3,0.5v4.1h-8.2c-0.4,0-0.8,0.3-0.8,0.6v27.5c0,0.1,0,0.1,0.1,0.2h-3.3c-0.4,0-0.8,0.3-0.8,0.6
	c0,0.3,0.3,0.6,0.8,0.6h22.2v1.8c0,0.2,0.1,0.4,0.3,0.5c0.1,0.1,0.3,0.1,0.5,0.1c0.1,0,0.1,0,0.2,0l10.9-2.3h7.1v14.5
	c0,0.3,0.3,0.5,0.6,0.6l5.8,0.7c0,0,0.1,0,0.1,0c0,0,0,0,0,0c0,0,0,0,0,0c0,0,0,0,0,0c0,0,0,0,0,0c0.1,0,0.1,0,0.2,0l11.3-1.9v2.2
	c0,0.3,0.3,0.5,0.6,0.6l5.8,0.7c0,0,0.1,0,0.1,0c0,0,0,0,0,0c0,0,0,0,0,0c0,0,0,0,0,0c0,0,0,0,0,0c0.1,0,0.1,0,0.2,0l15.7-2.6
	c0.3-0.1,0.6-0.3,0.6-0.6V68.1h10.8c0.4,0,0.8-0.3,0.8-0.6C-1128.9,67.2-1129.2,66.9-1129.6,66.9z M-1142.4,35.3v27.5c0,0,0,0,0,0.1
	l-2.2,0.2c-0.2-2.1-0.7-4-2.2-4.9c-0.9-0.6-2.2-0.8-3.6-0.6c-0.2,0-0.3,0.1-0.5,0.1v-3.6c0-0.3-0.2-0.5-0.6-0.6l-2.6-0.6V38.1
	L-1142.4,35.3z M-1156.9,64h-1.4c0-1.8,0.4-4.3,2.3-4.6c1-0.3,2.1,0,2.7,0.7c-0.4,1.1-0.5,2.5-0.5,3.6L-1156.9,64z M-1174.9,62.5
	h-1.4c0-1.8,0.4-4.3,2.3-4.6c1-0.3,2.1,0,2.7,0.7c-0.4,1.1-0.5,2.5-0.5,3.6L-1174.9,62.5z M-1170.2,61c0.1,0.4,0.1,0.7,0.2,1.1
	l-0.2,0C-1170.3,61.7-1170.3,61.4-1170.2,61z M-1168.6,62c-0.1-1.2-0.4-2.4-1.1-3.5c0.3-0.7,0.9-1.2,1.6-1.3c1-0.2,1.8-0.1,2.4,0.3
	c1.1,0.7,1.5,2.4,1.7,4.1L-1168.6,62z M-1152.4,58.6c-0.1,0.1-0.2,0.3-0.3,0.4c-1-0.7-2.4-0.9-3.7-0.6c-1.5,0.2-2.5,1.2-3,2.8
	l-2.7,0.2v-8.9l9.7,2.1V58.6z M-1162.1,51.3v-6.5c2.2,0.4,4.4,0.9,6.5,1.4v6.4L-1162.1,51.3z M-1155.6,45c-2.1-0.6-4.3-1-6.5-1.4V37
	c2.2,0.4,4.4,0.9,6.5,1.4V45z M-1163.6,36.9v6.5c-2.4-0.4-4.8-0.6-7.2-0.7v-6.6c0,0,0-0.1,0-0.1c2.4,0.1,4.8,0.4,7.2,0.8
	C-1163.5,36.8-1163.6,36.8-1163.6,36.9z M-1172.2,36.1v6.5c-1.2,0-2.4-0.1-3.6,0c-1.2,0-2.4,0-3.6,0v-6.5c0-0.1,0-0.1,0-0.1
	c1.2,0,2.4-0.1,3.6-0.1c1.2,0,2.4,0,3.6,0C-1172.2,36-1172.2,36-1172.2,36.1z M-1180.9,36.1v6.6c-2.4,0.1-4.8,0.4-7.2,0.7v-6.5
	c0,0,0-0.1,0-0.1C-1185.7,36.4-1183.3,36.1-1180.9,36.1C-1180.9,36-1180.9,36-1180.9,36.1z M-1189.6,43.6c-2.2,0.4-4.4,0.8-6.5,1.4
	v-6.6c2.1-0.6,4.3-1.1,6.5-1.4V43.6z M-1196.1,46.3c2.1-0.6,4.3-1.1,6.5-1.4v6.5l-6.5,1.4V46.3z M-1188.1,51.2v-6.7
	c2.4-0.4,4.8-0.6,7.2-0.7v6.7C-1183.3,50.7-1185.7,50.9-1188.1,51.2z M-1179.4,43.8c1.2,0,2.4-0.1,3.6,0c1.2,0,2.4,0,3.6,0v6.7
	c-2.4-0.1-4.8-0.1-7.2,0V43.8z M-1170.7,43.8c2.4,0.1,4.8,0.4,7.2,0.7v6.7c-2.4-0.3-4.8-0.6-7.2-0.7V43.8z M-1162.5,64
	c0-0.5,0-0.9,0-1.4l2.6-0.2V64H-1162.5z M-1150.6,63.5c0-0.5-0.1-1.1-0.3-1.6V59c0.2-0.2,0.5-0.3,0.8-0.3c1-0.2,1.8-0.1,2.4,0.3
	c1.1,0.7,1.5,2.4,1.7,4.1L-1150.6,63.5z M-1175.8,22.5c11.9,0,20.2,2.6,20.2,4.9v9.7c-6.5-1.7-13.3-2.6-20.2-2.5
	c-6.9-0.1-13.7,0.8-20.3,2.5v-9.7C-1196.1,25.1-1187.7,22.5-1175.8,22.5z M-1217.9,66.7V39.8h7.5v26.9c0,0.1,0,0.1,0.1,0.2h-7.6
	C-1217.9,66.8-1217.9,66.8-1217.9,66.7z M-1208.9,66.9c0-0.1,0.1-0.1,0.1-0.2V35.3l11.3,2.7v15.1l-2.2,0.5c-0.3,0.1-0.6,0.3-0.6,0.6
	v12.8H-1208.9z M-1198.9,54.6l9.3-2v14.1c0,0.1,0.1,0.2,0.2,0.3l-9.5,2V54.6z M-1188.1,66.9c0-0.1,0.1-0.1,0.1-0.2V52.4
	c8.1-1.1,16.4-1.1,24.5,0v5.4c-0.3-0.5-0.7-0.9-1.2-1.2c-0.9-0.6-2.2-0.8-3.6-0.6c-1.1,0.2-1.8,0.7-2.3,1.4c-1-0.7-2.4-0.9-3.7-0.6
	c-1.6,0.2-3.4,1.5-3.4,5.7h-2.8c-0.4,0-0.8,0.3-0.8,0.6v3.8H-1188.1z M-1179.9,63.7h4.3v18.9l-4.3-0.5V63.7z M-1174.1,82.5V63.6
	l2.4-0.2c0.1,0.9,0.2,1.5,0.3,1.7c0.1,0.3,0.4,0.5,0.7,0.5c0,0,0.1,0,0.1,0c0.4-0.1,0.7-0.4,0.6-0.7c-0.1-0.4-0.2-1-0.2-1.6l6.2-0.5
	c0,0.6,0,1.1,0,1.6c0,0.3,0.3,0.5,0.6,0.6v15.8L-1174.1,82.5z M-1161.9,65.2h4.3v18.9l-4.3-0.5V65.2z M-1141.9,81.7l-14.2,2.4V65.2
	l2.4-0.2c0.1,0.9,0.2,1.5,0.3,1.7c0.1,0.3,0.4,0.5,0.7,0.5c0,0,0.1,0,0.1,0c0.4-0.1,0.7-0.4,0.6-0.7c-0.1-0.4-0.2-1-0.2-1.6l6.2-0.5
	c0,0.6,0,1.1,0,1.6c0,0.3,0.3,0.6,0.8,0.6s0.8-0.3,0.8-0.6c0-0.6,0-1.2,0-1.7l2.6-0.2V81.7z M-1140.6,62.9c-0.1-0.1-0.2-0.1-0.3-0.1
	c0,0,0,0,0,0v-23h7.5v26.9c0,0.1,0,0.1,0.1,0.2h-7.1v-3.6C-1140.4,63.2-1140.4,63-1140.6,62.9z"/>
<g>
	<path d="M-1145.8,549.9h-3.1v-15.2c0-3.8-3.1-6.9-6.9-6.9h-40.8c-3.8,0-6.9,3.1-6.9,6.9v15.2h-3.1c-2.4,0-4.4,2-4.4,4.4v4
		c0,2.4,2,4.4,4.4,4.4h3.1v16.1c0,3.8,3.1,6.9,6.9,6.9h1.3v1.2c0,2.8,2.3,5,5,5h0.1c2.8,0,5-2.3,5-5v-1.2h18.8v1.2c0,2.8,2.3,5,5,5
		h0.1c2.8,0,5-2.3,5-5v-1.2h0.4c3.8,0,6.9-3.1,6.9-6.9v-16.1h3.1c2.4,0,4.4-2,4.4-4.4v-4C-1141.4,551.8-1143.4,549.9-1145.8,549.9z
		 M-1203.4,561.1h-3.1c-1.6,0-2.9-1.3-2.9-2.9v-4c0-1.6,1.3-2.9,2.9-2.9h3.1V561.1z M-1186.5,586.8c0,2-1.6,3.6-3.6,3.6h-0.1
		c-2,0-3.6-1.6-3.6-3.6v-1.2h7.3L-1186.5,586.8z M-1170.3,584.1h-12v-3.4h12V584.1z M-1157.6,586.8c0,2-1.6,3.6-3.6,3.6h-0.1
		c-2,0-3.6-1.6-3.6-3.6v-1.2h7.3L-1157.6,586.8z M-1150.3,550.6v28.1c0,3-2.4,5.4-5.4,5.4h-13.1v-3.8c0-0.5-0.4-1-1-1h-12.9
		c-0.5,0-1,0.4-1,1v3.8h-12.8c-3,0-5.4-2.4-5.4-5.4v-44c0-3,2.4-5.4,5.4-5.4h40.8c3,0,5.4,2.4,5.4,5.4L-1150.3,550.6z
		 M-1142.9,558.2c0,1.6-1.3,2.9-2.9,2.9h-3.1v-9.8h3.1c1.6,0,2.9,1.3,2.9,2.9L-1142.9,558.2z"/>
	<path d="M-1188.6,570.8C-1188.6,570.8-1188.6,570.8-1188.6,570.8h-9.1c-0.6,0-1.1,0.5-1.1,1.1c0,0,0,0,0,0v5.6
		c0,0.6,0.5,1.1,1.1,1.1h9.1c0.6,0,1.1-0.5,1.1-1.1v-5.6C-1187.5,571.3-1188,570.8-1188.6,570.8z M-1189,577.2h-8.4v-4.9h8.4V577.2z
		"/>
	<path d="M-1154.4,570.8C-1154.4,570.8-1154.4,570.8-1154.4,570.8h-9.1c-0.6,0-1.1,0.5-1.1,1.1v5.6c0,0.6,0.5,1.1,1.1,1.1h9.1
		c0.6,0,1.1-0.5,1.1-1.1v-5.6C-1153.3,571.3-1153.8,570.8-1154.4,570.8z M-1154.8,577.2h-8.4v-4.9h8.4V577.2z"/>
	<path d="M-1168.8,575.5h-14.8c-0.4,0-0.7,0.3-0.7,0.7c0,0.4,0.3,0.7,0.7,0.7h14.8c0.4,0,0.7-0.3,0.7-0.7
		C-1168,575.8-1168.4,575.5-1168.8,575.5z"/>
	<path d="M-1168.8,571.7h-14.8c-0.4,0-0.7,0.3-0.7,0.7c0,0.4,0.3,0.7,0.7,0.7h14.8c0.4,0,0.7-0.3,0.7-0.7
		C-1168,572-1168.4,571.7-1168.8,571.7z"/>
	<path d="M-1197.4,566.3h42c0.8,0,1.5-0.7,1.5-1.5v-24.5c0-0.8-0.7-1.5-1.5-1.5h-42c-0.8,0-1.5,0.7-1.5,1.5v24.5
		C-1198.9,565.7-1198.2,566.3-1197.4,566.3z M-1197.4,540.4h42v24.5h-42V540.4z"/>
</g>
<g>
	<path d="M-1203.5-395.8h18.7v-12.4h-18.7V-395.8z M-1202.1-406.9h15.9v9.7h-15.9V-406.9z"/>
	<path d="M-1206.1-392.1h23.9h1.4h15.9v-15.3v-9.7h-12.1v-4c0-1.8,1.6-3.2,3.5-3.2s3.5,1.4,3.5,3.2c0,0.4,0.3,0.7,0.7,0.7
		c0.4,0,0.7-0.3,0.7-0.7c0-2.5-2.2-4.6-4.8-4.6c-2.7,0-4.8,2.1-4.8,4.6v4h-2.4h-1.4h-1.8c0-0.5-0.5-1-1-1h-6.7c-0.6,0-1,0.4-1,1
		h-2.8c0-0.5-0.5-1-1-1h-6.7c-0.6,0-1,0.4-1,1h-1.8h-1.4h-15.9v25.1h15.9H-1206.1z M-1182.2-393.4h-23.9v-17.2h23.9v3.3V-393.4z
		 M-1180.8-415.8h14.5v7h-14.5v-1.9v-1.4V-415.8z M-1180.8-393.4v-14h14.5v14H-1180.8L-1180.8-393.4z M-1206.1-415.8h23.9v3.8h-23.9
		V-415.8z M-1222-393.4v-22.3h14.5v3.8v1.4v17.2H-1222z"/>
	<path d="M-1206.1-454.3h-17.2v11.5h17.2V-454.3z M-1207.5-444.2h-14.5v-8.8h14.5V-444.2z"/>
	<path d="M-1182.2-442.8h17.2v-11.5h-17.2V-442.8z M-1180.8-452.9h14.5v8.8h-14.5V-452.9z"/>
	<path d="M-1189.1-444.9v-9.3h-10.1v9.3l-6.9,7.5v5.4h23.9v-5.4L-1189.1-444.9z M-1190.5-452.9v7.6h-7.4v-7.6H-1190.5z M-1198.2-444
		h8.2l5.6,6.1h-19.4L-1198.2-444z M-1204.7-433.4v-3.1h21.1v3.1H-1204.7z"/>
</g>
<g>
	<path d="M-912-392.1h31.1h23.9v-2.1h-22.8v-59.1c0-0.6-0.5-1-1-1H-912c-0.6,0-1,0.5-1,1v60.2C-913-392.5-912.5-392.1-912-392.1z
		 M-910.9-452.2h13.5v3.1h-5.2c-0.6,0-1,0.5-1,1v4.2c0,0.6,0.5,1,1,1h12.5c0.6,0,1-0.5,1-1v-4.2c0-0.6-0.5-1-1-1h-5.2v-3.1h13.5
		v58.1h-13.5v-19.7h2.1v-2.1h-2.1v-3.1h-2.1v24.9h-13.5V-452.2z M-891.2-447.1v2.1h-10.4v-2.1H-891.2z"/>
	<rect x="-853.9" y="-394.1" width="3.1" height="2.1"/>
	<rect x="-901.6" y="-440.8" width="2.1" height="3.1"/>
	<rect x="-901.6" y="-435.6" width="2.1" height="2.1"/>
	<rect x="-897.4" y="-440.8" width="2.1" height="6.2"/>
	<rect x="-897.4" y="-432.5" width="2.1" height="2.1"/>
	<rect x="-893.3" y="-440.8" width="2.1" height="3.1"/>
	<rect x="-893.3" y="-435.6" width="2.1" height="2.1"/>
	<path d="M-851.8-420.1h-3.4c0.8-1.2,1.3-2.6,1.3-4.2c0-0.6-0.5-1-1-1h-18.7c-0.6,0-1,0.5-1,1c0,1.5,0.5,2.9,1.3,4.2h-3.4
		c-0.6,0-1,0.5-1,1v12.5c0,0.6,0.5,1,1,1h24.9c0.6,0,1-0.5,1-1V-419C-850.7-419.6-851.2-420.1-851.8-420.1z M-872.4-423.2h16.4
		c-0.3,1.2-1,2.3-2,3.1h-12.4C-871.5-420.9-872.2-422-872.4-423.2z M-852.8-418v2.1h-22.8v-2.1H-852.8z M-875.6-407.6v-6.2h22.8v6.2
		H-875.6z"/>
	<rect x="-867.3" y="-411.8" width="7.3" height="2.1"/>
	<path d="M-865.3-429.5v2.1h2.1v-2.1c6.4-0.5,11.4-5.9,11.4-12.4c0-6.9-5.6-12.5-12.5-12.5s-12.5,5.6-12.5,12.5
		C-876.7-435.4-871.7-430-865.3-429.5z M-864.2-452.2c1.4,0,2.7,0.3,4,0.8l-7.8,7.8l1.5,1.5l8.2-8.2c2.7,1.9,4.5,5,4.5,8.5
		c0,5.7-4.7,10.4-10.4,10.4s-10.4-4.7-10.4-10.4C-874.6-447.6-870-452.2-864.2-452.2z"/>
	<rect x="-870.3" y="-441.4" transform="matrix(0.7071 -0.7071 0.7071 0.7071 58.3715 -739.705)" width="13.2" height="2.1"/>
	<rect x="-871.9" y="-440.8" transform="matrix(0.7071 -0.7071 0.7071 0.7071 56.0295 -744.3216)" width="2.9" height="2.1"/>
</g>
<g>
	<path d="M-1199-293.3c-0.2,0-0.4-0.1-0.5-0.2s-0.2-0.3-0.2-0.5v-6.7h-4.7v3.5h1.1c0.4,0,0.8,0.3,0.8,0.8c0,0.4-0.3,0.7-0.7,0.7
		l-1.1,0l0,0.5c0,0.4-0.3,0.7-0.7,0.8h0c-0.2,0-0.4-0.1-0.5-0.2c-0.1-0.1-0.2-0.3-0.2-0.5l0-0.5h-1.1c-0.4,0-0.8-0.3-0.8-0.8
		c0-0.4,0.3-0.7,0.7-0.7l1.1,0v-3.5h-4.7v6.7c0,0.4-0.3,0.8-0.7,0.8h0c-0.2,0-0.4-0.1-0.5-0.2c-0.1-0.1-0.2-0.3-0.2-0.5v-6.7h-5.5
		c-3.2,0-5.7-2.6-5.7-5.7v-42.3c0-3.2,2.6-5.7,5.7-5.7h24.9c3.2,0,5.7,2.6,5.7,5.7v4.2l0,0l0,38.1c0,3.2-2.6,5.7-5.7,5.7h-5.5v6.7
		C-1198.2-293.6-1198.5-293.3-1199-293.3L-1199-293.3z M-1221.9-306.5c0,2.3,1.9,4.2,4.2,4.2h24.9c2.3,0,4.2-1.9,4.2-4.2v-4.2h-33.4
		V-306.5z M-1221.9-312.2h33.4v-30.9h-33.4V-312.2z M-1217.6-353c-2.3,0-4.2,1.9-4.2,4.2v4.2h33.4v-4.2c0-2.3-1.9-4.2-4.2-4.2
		H-1217.6z"/>
	<path d="M-1208.6-320.7c-0.1,0-0.2,0-0.3-0.1c-0.2-0.1-0.3-0.2-0.4-0.4c-0.1-0.2-0.1-0.4,0-0.6c0.1-0.2,0.1-0.3,0.1-0.5l0.5-1.7
		l-1.3,1.2c-0.1,0.1-0.2,0.2-0.3,0.3c-0.1,0.1-0.2,0.2-0.2,0.2c-0.5,0.3-1.1,0.5-1.7,0.5c-0.3,0-0.6,0-0.9-0.1
		c-1.1-0.3-1.9-1.2-2.1-2.4c-0.2-1.2,0.5-2.5,1.8-3.5c1.3-1,1.8-2.3,1.7-4.1c0-0.1,0-0.3,0-0.4l-0.2-1.5l-0.8,1.3
		c-0.4,0.7-0.9,1.2-1.4,1.7c-1.2,1-2.3,1.4-3.2,1.8l-0.3,0.1c-0.9,0.3-1.6,0.6-2.4,1.1c-0.7,0.5-1.3,1.4-1.6,2.3
		c-0.3,0.8-0.4,1.7-0.3,2.2l0,0.1c0,0.3,0,0.5-0.1,0.6c-0.1,0.2-0.3,0.3-0.5,0.3c0,0,0,0,0,0c-0.1,0-0.2,0-0.2,0l0,0
		c-0.3-0.1-0.5-0.3-0.5-0.6c-0.1-0.9,0-2,0.4-3c0.3-0.9,0.9-2.2,2.2-3.1c1-0.7,1.9-1,2.7-1.3l0.3-0.1c1-0.3,1.8-0.7,2.7-1.5
		c1.6-1.3,2.1-4.4,2.1-4.5c0-0.4,0.3-0.7,0.7-0.7c0,0,0,0,0,0c0.3,0,0.5,0.1,0.7,0.4c0,0,0.7,1.3,1.1,2.9l0,0.1
		c0.1,0.2,0.1,0.5,0.1,0.7c0.2,1.3,0.4,4.5-2.2,6.5c-0.9,0.7-1.3,1.4-1.2,2.1c0.1,0.5,0.5,1,1,1.1c0.2,0,0.4,0.1,0.6,0.1
		c0.3,0,0.6-0.1,0.9-0.3c0.5-0.3,1.2-1,1.8-2.6c0-0.1,0.1-0.2,0.1-0.2c0.1-0.2,0.3-0.2,0.5-0.2c0.2,0,0.4,0.1,0.5,0.2v0
		c0,0,0.5,0.6,0.8,1.4c0.2,0.6,0.4,2-0.4,3.8C-1208-320.8-1208.3-320.7-1208.6-320.7z"/>
	<path d="M-1167.8-293.3c-5.2,0-9.5-4.2-9.5-9.5c0-4.8,3.6-8.8,8.3-9.4l0.5-0.1l0-0.5l0-1.3c0-0.2,0.1-0.4,0.2-0.5s0.3-0.2,0.5-0.2
		c0.2,0,0.4,0.1,0.5,0.2c0.1,0.1,0.2,0.3,0.2,0.5v1.7l0.4,0.1c4.7,0.6,8.3,4.6,8.3,9.4C-1158.4-297.5-1162.6-293.3-1167.8-293.3z
		 M-1167.8-310.7c-4.4,0-8,3.6-8,8s3.6,8,8,8s8-3.6,8-8S-1163.4-310.7-1167.8-310.7z M-1169.1-298.2c-0.2,0-0.4-0.1-0.5-0.2
		c-0.1-0.1-0.2-0.3-0.3-0.5c0-0.2,0.1-0.4,0.2-0.5l2.1-2.5h-2.1c-0.2,0-0.3-0.1-0.5-0.2c-0.3-0.3-0.4-0.7-0.1-1l3.1-3.7
		c0.1-0.2,0.3-0.3,0.6-0.3h0c0.2,0,0.4,0.1,0.5,0.2c0.2,0.1,0.2,0.3,0.3,0.5c0,0.2,0,0.4-0.2,0.5l-2.1,2.5h2.1
		c0.2,0,0.3,0.1,0.5,0.2c0.3,0.3,0.4,0.7,0.1,1l-3.1,3.7C-1168.7-298.3-1168.9-298.2-1169.1-298.2L-1169.1-298.2z M-1167.8-316.9
		c-0.4,0-0.7-0.3-0.7-0.8v-1.3c0-0.4,0.3-0.8,0.7-0.8c0.2,0,0.4,0.1,0.5,0.2c0.1,0.1,0.2,0.3,0.2,0.5v1.3
		C-1167.1-317.2-1167.4-316.9-1167.8-316.9L-1167.8-316.9z M-1169.1-321.9c-0.2,0-0.4-0.1-0.5-0.2s-0.2-0.3-0.2-0.5
		c0-0.4,0.3-0.7,0.7-0.7l1.3,0c0.4,0,0.8,0.3,0.8,0.8c0,0.4-0.3,0.7-0.7,0.7L-1169.1-321.9L-1169.1-321.9z M-1174.1-321.9
		c-0.2,0-0.4-0.1-0.5-0.2s-0.2-0.3-0.2-0.5c0-0.4,0.3-0.7,0.7-0.7l1.3,0c0.2,0,0.4,0.1,0.6,0.2s0.2,0.3,0.2,0.5
		c0,0.4-0.3,0.7-0.7,0.7L-1174.1-321.9L-1174.1-321.9z M-1179.1-321.9c-0.2,0-0.4-0.1-0.5-0.2c-0.1-0.1-0.2-0.3-0.2-0.5
		c0-0.4,0.3-0.7,0.7-0.7l1.3,0c0.4,0,0.8,0.3,0.8,0.8c0,0.4-0.3,0.7-0.7,0.7L-1179.1-321.9L-1179.1-321.9z"/>
	<path d="M-1184.1-321.9c-0.2,0-0.4-0.1-0.5-0.2s-0.2-0.3-0.2-0.5c0-0.4,0.3-0.7,0.7-0.7l1.3,0c0.2,0,0.4,0.1,0.6,0.2
		s0.2,0.3,0.2,0.5c0,0.4-0.3,0.7-0.7,0.7L-1184.1-321.9L-1184.1-321.9z"/>
</g>
<g>
	<g transform="translate(1.000000, 1.000000)">
		<g>
			<path d="M-1178.5-96.2h-42.9c-1.6,0-2.9-1.3-2.9-2.9v-47.2c0-1.6,1.3-2.9,2.9-2.9h42.9c1.6,0,2.9,1.3,2.9,2.9v47.2
				C-1175.6-97.5-1176.9-96.2-1178.5-96.2z M-1221.5-147.7c-0.8,0-1.4,0.6-1.4,1.4v47.2c0,0.8,0.6,1.4,1.4,1.4h42.9
				c0.8,0,1.4-0.6,1.4-1.4v-47.2c0-0.8-0.6-1.4-1.4-1.4H-1221.5z"/>
		</g>
		<g>
			<path d="M-1193.6-152h-12.9c-1.6,0-2.9-1.3-2.9-2.9v-2.1c0-1.6,1.3-2.9,2.9-2.9h12.9c1.6,0,2.9,1.3,2.9,2.9v2.1
				C-1190.7-153.3-1192-152-1193.6-152z M-1206.4-158.5c-0.8,0-1.4,0.6-1.4,1.4v2.1c0,0.8,0.6,1.4,1.4,1.4h12.9
				c0.8,0,1.4-0.6,1.4-1.4v-2.1c0-0.8-0.6-1.4-1.4-1.4H-1206.4z"/>
		</g>
		<g>
			<rect x="-1200.7" y="-148.5" width="1.5" height="51.5"/>
		</g>
		<g>
			<path d="M-1162.3-125.1h-6.6c-0.7,0-1.2-0.4-1.5-0.9c-0.3-0.6-0.3-1.2,0-1.8l3.3-6.4c0.3-0.6,0.9-1,1.5-1s1.3,0.4,1.6,1l3.3,6.4
				c0.3,0.5,0.3,1.2,0,1.7C-1161.1-125.5-1161.7-125.2-1162.3-125.1L-1162.3-125.1z M-1165.6-133.6c-0.1,0-0.2,0-0.2,0.1l-3.3,6.4
				c-0.1,0.1-0.1,0.2,0,0.3c0.1,0.1,0.2,0.2,0.3,0.2l6.5,0c0.1,0,0.2-0.1,0.2-0.2c0.1-0.1,0.1-0.2,0-0.3l-3.3-6.4
				C-1165.5-133.6-1165.6-133.6-1165.6-133.6z"/>
		</g>
		<g>
			<path d="M-1165.6-110.2c-0.7,0-1.3-0.4-1.5-1l-3.3-6.4c-0.3-0.5-0.3-1.2,0-1.7s0.9-0.9,1.5-0.9l0,0h6.6c0.7,0,1.2,0.4,1.5,0.9
				c0.3,0.6,0.3,1.2,0,1.8l-3.3,6.4C-1164.4-110.5-1165-110.2-1165.6-110.2z M-1168.9-118.7c-0.1,0-0.2,0.1-0.2,0.2
				c-0.1,0.1-0.1,0.2,0,0.3l3.3,6.4c0.1,0.2,0.3,0.2,0.4,0l3.3-6.4c0.1-0.1,0.1-0.2,0-0.3c-0.1-0.1-0.2-0.2-0.3-0.2L-1168.9-118.7z"
				/>
		</g>
	</g>
</g>
<g>
	<g>
		<g>
			<path d="M-886.9-107.3h-5.6c-0.5,0-1-0.4-1-1v-35.1c0-0.5,0.4-1,1-1h14c6.3,0,11.5,5.2,11.5,11.5c0,6.3-5.2,11.5-11.5,11.5h-7.4
				v13.1C-885.9-107.7-886.4-107.3-886.9-107.3z M-891.6-109.3h3.7v-13.1c0-0.5,0.4-1,1-1h8.4c5.3,0,9.5-4.3,9.5-9.5
				c0-5.3-4.3-9.5-9.5-9.5h-13.1V-109.3z"/>
		</g>
		<g>
			<path d="M-878.5-126.9h-8.4c-0.5,0-1-0.4-1-1v-9.8c0-0.5,0.4-1,1-1h8.4c3.3,0,5.9,2.6,5.9,5.9
				C-872.6-129.6-875.3-126.9-878.5-126.9z M-885.9-128.9h7.4c2.2,0,3.9-1.8,3.9-3.9c0-2.2-1.8-3.9-3.9-3.9h-7.4V-128.9z"/>
		</g>
		<g>
			<path d="M-881.9-95.2c-8.5,0-16.5-3.3-22.5-9.3c-6-6-9.3-14-9.3-22.5s3.3-16.5,9.3-22.5c6-6,14-9.3,22.5-9.3
				c8.5,0,16.5,3.3,22.5,9.3c6,6,9.3,14,9.3,22.5s-3.3,16.5-9.3,22.5C-865.4-98.5-873.4-95.2-881.9-95.2z M-881.9-157
				c-16.5,0-29.9,13.4-29.9,29.9c0,16.5,13.4,29.9,29.9,29.9c16.5,0,29.9-13.4,29.9-29.9C-852-143.6-865.4-157-881.9-157z"/>
		</g>
	</g>
</g>
<g>
	<g>
		<path d="M-902.5-366.4h41.3v33h1.8v-33.9c0-0.5-0.4-0.9-0.9-0.9h-43.1c-0.5,0-0.9,0.4-0.9,0.9v33.9h1.8V-366.4z"/>
	</g>
	<g>
		<path d="M-864-333.4v-29.3c0-0.5-0.4-0.9-0.9-0.9h-33.8c-0.5,0-0.9,0.4-0.9,0.9v29.2h1.8v-28.2h15v28.3h1.8v-28.3h15v28.3H-864z"
			/>
	</g>
	<g>
		<path d="M-893.2-358.6c0.4-0.4,0.4-1,0-1.3c-0.4-0.4-1-0.4-1.3,0l-1.5,1.5c-0.4,0.4-0.4,1,0,1.3c0.2,0.2,0.4,0.3,0.7,0.3
			c0.3,0,0.5-0.1,0.7-0.3L-893.2-358.6z"/>
	</g>
	<g>
		<path d="M-894.2-352.8c0.3,0,0.5-0.1,0.7-0.3l4.3-4.3c0.4-0.4,0.4-1,0-1.3c-0.4-0.3-1-0.4-1.3,0l-4.3,4.3c-0.4,0.4-0.4,1,0,1.3
			C-894.7-352.9-894.4-352.8-894.2-352.8z"/>
	</g>
	<g>
		<path d="M-853.4-307.8h-2.9v-20.8h2.9c0.5,0,0.9-0.4,0.9-0.9c0-0.5-0.4-0.9-0.9-0.9h-57c-0.5,0-0.9,0.4-0.9,0.9
			c0,0.5,0.4,0.9,0.9,0.9h2.9v20.8h-2.9c-0.5,0-0.9,0.4-0.9,0.9c0,0.5,0.4,0.9,0.9,0.9h57c0.5,0,0.9-0.4,0.9-0.9
			C-852.5-307.4-852.8-307.8-853.4-307.8z M-858.2-307.8h-5.2v-20.8h5.2V-307.8z M-891.5-328.6h5.2v20.8h-5.2V-328.6z M-893.3-307.8
			h-5.2v-20.8h5.2V-307.8z M-884.4-328.6h5.2v20.8h-5.2V-328.6z M-877.4-328.6h5.2v20.8h-5.2V-328.6z M-870.4-328.6h5.2v20.8h-5.2
			V-328.6z M-905.6-328.6h5.2v20.8h-5.2V-328.6z"/>
	</g>
</g>
<g>
	<g>
		<path d="M-929.6,120.8v65.5h65.5v-65.5H-929.6z M-865.6,122.3v38.1c-0.4,0.3-0.9,0.4-1.7,0.4c-2.9,0-3-2.8-3-3
			c0-0.2-0.1-0.3-0.3-0.3c0,0,0,0,0,0c-0.2,0-0.3,0.1-0.3,0.3c0,0.1-0.1,3-3,3c-2.1,0-2.7-1.4-2.9-2.3c0.1-0.4,0.1-0.6,0.1-0.6
			c0-0.2-0.1-0.3-0.3-0.3c0,0-0.1,0-0.1,0c0,0-0.1,0-0.1,0c0,0,0,0,0,0c-0.2,0-0.3,0.1-0.3,0.3c0,0.1-0.1,2.9-2.9,3
			c-2.9,0-2.9-2.8-2.9-3c0-0.2-0.1-0.3-0.3-0.3c0,0,0,0,0,0c0,0,0,0-0.1,0c0,0,0,0-0.1,0c0,0,0,0,0,0c-0.2,0-0.3,0.1-0.3,0.3
			c0,0.1,0,2.9-2.9,2.9c-2.9,0-2.9-2.8-2.9-2.9h0v0c0-0.2-0.1-0.3-0.3-0.3c0,0,0,0,0,0c-0.1,0-0.2,0-0.2,0.1c0,0,0,0,0,0
			c0,0.1-0.1,0.1-0.1,0.2c0,0.1-0.1,1.7-1.3,2.5c0,0,0,0,0,0c0,0,0,0,0,0c-0.4,0.3-1,0.4-1.7,0.4c-2.8,0-2.9-2.8-2.9-3
			c0-0.2-0.2-0.3-0.3-0.3c0,0,0,0,0,0c0,0,0,0,0,0c0,0,0,0,0,0c-0.2,0-0.3,0.1-0.3,0.3c0,0,0,0,0,0c0,0,0,0,0,0v0v0v0c0,0,0,0,0,0
			c0,0,0,0,0,0c0,0,0,0,0,0c0,0,0,0,0,0c0,0.1,0,1.6-1.1,2.4c-0.4,0.3-1,0.6-1.8,0.6c-0.5,0-1-0.1-1.3-0.3c-1.5-0.7-1.6-2.5-1.6-2.7
			c0,0,0,0,0,0c0,0,0,0,0,0c0,0,0,0,0,0c0-0.1,0-0.1-0.1-0.1c0,0,0-0.1,0-0.1c-0.1-0.1-0.1-0.1-0.2-0.1c0,0,0,0,0,0
			c-0.2,0-0.3,0.1-0.3,0.3c0,0.1-0.1,2.9-3.1,3c-0.2,0-0.3,0-0.4,0c0,0,0,0,0,0c-2.4-0.3-2.4-2.8-2.4-2.9c0-0.2-0.1-0.3-0.3-0.3
			c0,0,0,0,0,0c0,0,0,0,0,0c-0.2,0-0.3,0.1-0.3,0.3c0,0.1-0.2,2.9-2.9,3c-2.7-0.1-2.8-2.8-2.8-3c0-0.2-0.2-0.3-0.3-0.3c0,0,0,0,0,0
			c0,0-0.1,0-0.1,0c0,0-0.1,0-0.1,0c0,0,0,0,0,0c-0.2,0-0.3,0.1-0.3,0.3c0,0,0,0.3,0.1,0.7c-0.2,0.9-0.9,2.3-3,2.3
			c-0.9,0-1.6-0.3-2.1-0.8c-0.8-0.9-0.8-2.2-0.8-2.2c0-0.2-0.1-0.3-0.3-0.3c-0.2,0-0.3,0.1-0.3,0.3c0,0.1-0.2,3-3,3
			c-0.6,0-1.1-0.2-1.5-0.4v-38.2H-865.6z M-928.1,184.8v-23.6c0.4,0.2,0.9,0.3,1.5,0.3c2,0,2.9-1.1,3.3-2.1c0.2,0.4,0.4,0.8,0.7,1.2
			c0.6,0.6,1.5,1,2.6,1c1.9,0,2.9-1,3.3-1.9c0.4,0.9,1.3,1.9,3.2,1.9c0,0,0.1,0,0.1,0c0,0,0.1,0,0.1,0c1.9,0,2.7-1,3.2-2
			c0.1,0.3,0.3,0.7,0.6,1c0.6,0.6,1.5,1,2.6,1c0,0,0,0,0.1,0c0,0,0,0,0.1,0c2,0,2.9-1.1,3.3-2.1c0.3,0.7,0.8,1.4,1.7,1.8
			c0.4,0.2,1,0.3,1.6,0.3c1,0,1.7-0.3,2.2-0.7c0.5-0.4,0.8-0.9,1-1.4c0.4,1,1.3,2.1,3.3,2.1c0,0,0,0,0,0c0,0,0,0,0,0
			c0.9,0,1.5-0.2,2-0.6c0.6-0.4,1-1,1.3-1.6c0.4,1,1.3,2.1,3.3,2.1c2,0,2.9-1.1,3.3-2c0.4,1,1.3,2,3.2,2c0,0,0,0,0.1,0
			c0,0,0,0,0.1,0c1.9,0,2.8-1,3.3-1.9c0.4,0.9,1.3,1.9,3.2,1.9c2,0,2.9-1.1,3.3-2.1c0.4,1,1.3,2.1,3.3,2.1c0.7,0,1.2-0.1,1.7-0.3
			v23.6H-928.1z"/>
		<path d="M-907.6,136c1.1,0,2.1-0.5,2.8-1.4c1.2,1.2,3.1,1.7,4.8,1.2c0.6,0.9,1.7,1.5,2.8,1.5c1.8,0,3.3-1.5,3.3-3.3
			c0-1.5-1-2.8-2.5-3.2c-0.1-2.6-2.3-4.8-5-4.8c-2.2,0-4.1,1.4-4.7,3.4c-0.5-0.2-1-0.3-1.5-0.3c-1.9,0-3.4,1.5-3.4,3.4
			C-911.1,134.5-909.5,136-907.6,136z M-907.6,129.8c0.5,0,1.1,0.2,1.5,0.5c0.1,0.1,0.2,0.1,0.3,0c0.1,0,0.2-0.1,0.2-0.2
			c0.5-2,2.2-3.3,4.2-3.3c2.4,0,4.3,1.9,4.3,4.3c0,0,0,0,0,0c0,0.2,0.1,0.3,0.3,0.3c1.3,0.2,2.2,1.3,2.2,2.6c0,1.5-1.2,2.7-2.7,2.7
			c-1,0-1.9-0.5-2.3-1.4c-0.1-0.1-0.2-0.2-0.3-0.2c0,0-0.1,0-0.1,0c-1.7,0.6-3.5,0-4.6-1.3c-0.1-0.1-0.2-0.1-0.3-0.1
			c-0.1,0-0.2,0.1-0.3,0.2c-0.5,0.9-1.4,1.4-2.4,1.4c-1.5,0-2.8-1.2-2.8-2.8S-909.2,129.8-907.6,129.8z"/>
		<path d="M-873.4,174.5c0-0.1-0.1-0.3-0.2-0.3c-0.1-0.1-0.3,0-0.4,0.1l-2.6,2.9c-0.6-0.5-2.2-1.6-4.2-2.1l-0.1-1.7
			c0-0.1-0.1-0.2-0.2-0.3c-0.1,0-0.2,0-0.3,0.1l-1.9,1.6c-0.3,0-0.6,0-0.9,0.1c0,0,0,0-0.1,0c-3.3,0.4-5.7,2.5-5.8,2.6
			c-0.1,0.1-0.1,0.2-0.1,0.2c0,0.1,0,0.2,0.1,0.2c0.1,0.1,3.1,2.7,6.9,2.7c3.3,0,6-2,6.7-2.5l3,2.9c0.1,0.1,0.1,0.1,0.2,0.1
			c0.1,0,0.1,0,0.2,0c0.1-0.1,0.2-0.2,0.2-0.4l-0.7-3L-873.4,174.5z M-881.6,174.1l0.1,0.8c-0.3-0.1-0.6-0.1-0.9-0.1L-881.6,174.1z
			 M-884.7,179.8c-2.2-0.4-4-1.6-4.7-2.1c0.7-0.5,2.6-1.8,4.9-2.2c0.2,0.6,0.4,1.2,0.4,1.9C-884.1,178.3-884.3,179.1-884.7,179.8z
			 M-883.2,179.9c-0.3,0-0.5,0-0.8,0c0.4-0.7,0.6-1.6,0.6-2.5c0-0.7-0.1-1.4-0.3-2c0.2,0,0.4,0,0.6,0c2.9,0,5.3,1.6,6.2,2.3
			C-877.9,178.3-880.4,179.9-883.2,179.9z M-876.1,177.6l1.9-2.2l-0.1,2.2c0,0,0,0.1,0,0.1l0.5,2L-876.1,177.6z"/>
		<path d="M-893.4,167c0-0.1-0.1-0.3-0.2-0.3c-0.1-0.1-0.3,0-0.4,0.1l-2.6,2.9c-0.6-0.5-2.2-1.6-4.2-2.1l-0.1-1.7
			c0-0.1-0.1-0.2-0.2-0.3c-0.1,0-0.2,0-0.3,0.1l-1.9,1.6c-0.3,0-0.6,0-0.9,0.1c0,0,0,0-0.1,0c-3.3,0.4-5.7,2.5-5.8,2.6
			c-0.1,0.1-0.1,0.2-0.1,0.2c0,0.1,0,0.2,0.1,0.2c0.1,0.1,3.1,2.7,6.9,2.7c3.3,0,6-2,6.7-2.5l3,2.9c0.1,0.1,0.1,0.1,0.2,0.1
			c0.1,0,0.1,0,0.2,0c0.1-0.1,0.2-0.2,0.2-0.4l-0.7-3L-893.4,167z M-901.5,166.6l0.1,0.8c-0.3-0.1-0.6-0.1-0.9-0.1L-901.5,166.6z
			 M-904.7,172.3c-2.2-0.4-4-1.6-4.7-2.1c0.7-0.5,2.6-1.8,4.9-2.2c0.2,0.6,0.4,1.2,0.4,1.9C-904.1,170.8-904.3,171.7-904.7,172.3z
			 M-903.2,172.5c-0.3,0-0.5,0-0.8,0c0.4-0.7,0.6-1.6,0.6-2.5c0-0.7-0.1-1.4-0.3-2c0.2,0,0.4,0,0.6,0c2.9,0,5.3,1.6,6.2,2.3
			C-897.9,170.8-900.3,172.5-903.2,172.5z M-896,170.1l1.9-2.2l-0.1,2.2c0,0,0,0.1,0,0.1l0.5,2L-896,170.1z"/>
		<path d="M-876.5,138.9c3.5,0,6.4-2.9,6.4-6.4c0-3.5-2.9-6.4-6.4-6.4c-3.5,0-6.4,2.9-6.4,6.4C-882.9,136-880.1,138.9-876.5,138.9z
			 M-876.5,126.8c3.2,0,5.7,2.6,5.7,5.7s-2.6,5.7-5.7,5.7c-3.2,0-5.7-2.6-5.7-5.7S-879.7,126.8-876.5,126.8z"/>
		<path d="M-906.4,143.8c-0.2,0.1-0.3,0.3-0.2,0.4c0.1,0.1,0.2,0.2,0.3,0.2c0,0,0.1,0,0.1,0l21.6-8.6c0.2-0.1,0.3-0.3,0.2-0.4
			c-0.1-0.2-0.3-0.3-0.4-0.2L-906.4,143.8z"/>
		<path d="M-877.5,140.7c-0.2-0.1-0.4,0-0.4,0.2l-3.3,10c-0.1,0.2,0,0.4,0.2,0.4c0,0,0.1,0,0.1,0c0.1,0,0.3-0.1,0.3-0.2l3.3-10
			C-877.3,141-877.4,140.8-877.5,140.7z"/>
		<path d="M-882.8,138.9l-12,10.7c-0.1,0.1-0.1,0.3,0,0.5c0.1,0.1,0.2,0.1,0.2,0.1c0.1,0,0.2,0,0.2-0.1l12-10.7
			c0.1-0.1,0.1-0.3,0-0.5C-882.5,138.8-882.7,138.8-882.8,138.9z"/>
		<path d="M-893.3,130l8.3,0.7c0,0,0,0,0,0c0.2,0,0.3-0.1,0.3-0.3c0-0.2-0.1-0.3-0.3-0.4l-8.3-0.7c-0.2,0-0.3,0.1-0.4,0.3
			S-893.5,130-893.3,130z"/>
		<path d="M-873.3,140.2c-0.2,0.1-0.3,0.2-0.2,0.4l2.7,9c0,0.1,0.2,0.2,0.3,0.2c0,0,0.1,0,0.1,0c0.2-0.1,0.3-0.2,0.2-0.4l-2.7-9
			C-873,140.2-873.2,140.1-873.3,140.2z"/>
	</g>
</g>
<g>
	<path d="M-1217.6,276.7v-8.3h83v8.3H-1217.6z M-1215.8,274.9h79.4v-4.6h-79.4V274.9z"/>
	<path d="M-1212.7,266.5v-0.9c0-15.7,10-29.7,24.8-34.8c1.2-0.5,2.4-0.8,3.7-1.1l0.8-0.2v-1.4c0-4,3.3-7.3,7.3-7.3s7.3,3.3,7.3,7.3
		v1.4l0.8,0.2c1.1,0.2,2.3,0.6,3.7,1.1c14.8,5.1,24.8,19,24.9,34.8v0.9H-1212.7z M-1176.2,230.8c-2,0-4,0.2-5.9,0.5
		c-2.1,0.3-3.8,0.8-5.3,1.4c-13.5,4.6-22.7,16.8-23.5,31.1l-0.1,1.1h69.6l-0.1-1.1c-0.7-14.3-10-26.5-23.6-31.1
		c-1.5-0.6-3.2-1-5.3-1.3C-1172.2,231-1174.2,230.8-1176.2,230.8z M-1174.4,229c0.2,0,0.3,0,0.5,0c0.2,0,0.5,0.1,0.7,0.1h0.5
		c0.1,0,0.2,0,0.3,0c0.2,0,0.5,0.1,0.8,0.1h1v-1c0-3-2.5-5.5-5.5-5.5s-5.5,2.5-5.5,5.5v1h1c0.2,0,0.4,0,0.6-0.1c0.2,0,0.3,0,0.5,0
		h0.5l0.1,0c0.4-0.1,0.7-0.1,1.2-0.1H-1174.4z"/>
</g>
<g>
	<path d="M-873.9,261.7c-4.2,0-7.7-3.4-7.7-7.7c0-1.4,0.4-2.7,1.1-3.9c0.2-0.3,0.4-0.4,0.7-0.4c0.1,0,0.3,0,0.4,0.1
		c0.2,0.1,0.3,0.3,0.4,0.5c0.1,0.2,0,0.4-0.1,0.6c-0.5,0.9-0.8,2-0.8,3.1c0,3.3,2.7,6,6,6s6-2.7,6-6c0-2.5-1.5-4.7-3.8-5.6l-1.4-0.5
		v5.9c0,0.5-0.4,0.8-0.8,0.8s-0.8-0.4-0.8-0.8v-6.6c0-0.5,0.4-0.8,0.8-0.8c4.2,0,7.7,3.4,7.7,7.7
		C-866.2,258.2-869.6,261.6-873.9,261.7L-873.9,261.7z"/>
	<path d="M-882.7,267.8c-0.5,0-0.8-0.4-0.8-0.8s0.4-0.8,0.8-0.8h4.3c0.5,0,0.8,0.4,0.8,0.8s-0.4,0.8-0.8,0.8H-882.7z"/>
	<path d="M-928.8,280.6c-0.5,0-0.8-0.4-0.8-0.8v-6.5c0-0.5,0.4-0.8,0.8-0.8h7.7v-5.3l-0.7-0.2c-4.7-1.4-7.8-5.7-7.8-10.6v-14
		c0-0.5,0.4-0.8,0.8-0.8h33c0.5,0,0.8,0.4,0.8,0.8v14c0,4.9-3.1,9.1-7.8,10.6l-0.7,0.2v5.3h5.3c2.4,0,4.6-0.9,6.3-2.6
		c1.7-1.7,2.6-3.9,2.6-6.3v-35h-10.6v4.5c0,0.5-0.4,0.8-0.8,0.8h-23.2c-0.5,0-0.8-0.4-0.8-0.8v-4.5h-4.1c-0.5,0-0.8-0.4-0.8-0.8
		v-2.8c0-2,0.8-4,2.3-5.5c1.4-1.4,3.4-2.3,5.5-2.3h48c2,0,4,0.8,5.5,2.3c1.4,1.4,2.3,3.4,2.3,5.5v2.8c0,0.5-0.4,0.8-0.8,0.8h-4.6
		v12.2c0,0.5-0.4,0.8-0.8,0.8s-0.8-0.4-0.8-0.8v-12.2h-5.1c-0.5,0-0.8-0.4-0.8-0.8s0.4-0.8,0.8-0.8h10.5v-2c0-1.6-0.6-3.1-1.8-4.3
		c-1.1-1.2-2.7-1.8-4.3-1.8h-48c-2.6,0-4.9,1.7-5.7,4c-0.2,0.7-0.4,1.4-0.4,2v2h39.5c0.5,0,0.8,0.4,0.8,0.8v35.8
		c0,2.8-1.1,5.5-3.1,7.5c-2,2-4.7,3.1-7.5,3.1H-928v4.9h60.2v-6.6c-0.1-3.4-2.5-4.6-4.6-4.6c-0.2,0-0.3,0-0.3,0
		c-0.4,0-0.7-0.4-0.7-0.8s0.4-0.8,0.8-0.8h0.3c1.6,0,3.2,0.7,4.3,1.8c1.2,1.2,1.8,2.7,1.8,4.4v7.4c0,0.5-0.4,0.8-0.8,0.8H-928.8z
		 M-919.5,272.4h14.3v-5h-14.3V272.4z M-928,256.3c0,4,2.5,7.5,6.2,8.8c1,0.4,2.1,0.6,3.2,0.6h12.5c5.2,0,9.4-4.2,9.4-9.4v-6.7H-928
		V256.3z M-928,248h31.3v-4.9H-928V248z M-923.1,232.2h21.5v-3.7h-21.5V232.2z"/>
	<path d="M-881.2,235.6c-0.5,0-0.8-0.4-0.8-0.8s0.4-0.8,0.8-0.8h1.5c0.5,0,0.8,0.4,0.8,0.8s-0.4,0.8-0.8,0.8H-881.2z"/>
	<path d="M-881.2,241.5c-0.5,0-0.8-0.4-0.8-0.8s0.4-0.8,0.8-0.8h1.5c0.5,0,0.8,0.4,0.8,0.8s-0.4,0.8-0.8,0.8H-881.2z"/>
</g>
<g>
	<path d="M-988.2,553.6c-0.3,0-0.6-0.3-0.6-0.6s0.3-0.6,0.6-0.6l33.1,0v-12.5h-33.1c-0.3,0-0.6-0.3-0.6-0.6s0.3-0.6,0.6-0.6h33.7
		c0.3,0,0.6,0.3,0.6,0.6V553c0,0.3-0.3,0.6-0.6,0.6H-988.2z"/>
	<path d="M-988.2,561.4c-0.3,0-0.6-0.3-0.6-0.6s0.3-0.6,0.6-0.6h90.6c0.3,0,0.6,0.3,0.6,0.6s-0.3,0.6-0.6,0.6H-988.2z"/>
	<path d="M-947.5,553.6c-0.3,0-0.6-0.3-0.6-0.6v-13.7c0-0.3,0.3-0.6,0.6-0.6h11.4c0.3,0,0.6,0.3,0.6,0.6V553c0,0.3-0.3,0.6-0.6,0.6
		l0,0L-947.5,553.6z M-946.9,552.4h10.3v-12.5h-10.3V552.4z"/>
	<path d="M-988.2,588.8c-0.7,0-1.3-0.6-1.3-1.3s0.6-1.3,1.3-1.3h14.2l-0.7-1.7c-0.3-0.7-0.4-1.4-0.4-2.1l0-1.2h-6
		c-0.3,0-0.6-0.3-0.6-0.6v-5.4h-6.4c-0.7,0-1.3-0.6-1.3-1.3c0-0.7,0.6-1.3,1.3-1.3h91.4c1.6,0,3.3-0.3,4.8-0.9
		c4.1-1.5,6.8-5.5,6.8-9.8c0-2.9-1.2-5.7-3.3-7.7l-0.6-0.6h-40c-0.3,0-0.6-0.3-0.6-0.6v-13.7c0-0.3,0.3-0.6,0.6-0.6h24.7l-3.5-2.3
		c-3-1.9-6.4-2.9-10-2.9h-70.3c-0.7,0-1.3-0.6-1.3-1.3c0-0.7,0.6-1.3,1.3-1.3h70.3c5.4,0,10.5,2,14.4,5.7l16.8,15.7
		c2.6,2.5,4.2,6,4.2,9.6c0,5.5-3.4,10.4-8.6,12.3c-1.5,0.6-3.1,0.9-4.8,1l-1.2,0.1v5.4c0,0.3-0.3,0.6-0.6,0.6h-6l0,1.2
		c0,0.7-0.2,1.5-0.4,2.1l-0.7,1.7h20.9c0.7,0,1.3,0.6,1.3,1.3c0,0.7-0.6,1.3-1.3,1.3H-988.2z M-914.2,582.4c0.1,2.5,2.2,4.5,4.7,4.5
		c2.5,0,4.6-2,4.7-4.5l0.1-1.3h-9.5L-914.2,582.4z M-924.7,582.4c0.1,2.5,2.2,4.5,4.7,4.5c2.5,0,4.6-2,4.7-4.5l0.1-1.3h-9.5
		L-924.7,582.4z M-963.5,582.4c0.1,2.5,2.2,4.5,4.7,4.5c2.5,0,4.6-2,4.7-4.5l0.1-1.3h-9.5L-963.5,582.4z M-974,582.4
		c0.1,2.5,2.2,4.5,4.7,4.5c2.5,0,4.6-2,4.7-4.5l0.1-1.3h-9.5L-974,582.4z M-952.9,582.3c0,0.7-0.2,1.5-0.4,2.1l-0.7,1.7h29.3
		l-0.7-1.7c-0.3-0.7-0.4-1.4-0.4-2.1l0-1.2h-6c-0.3,0-0.6-0.3-0.6-0.6v-5.4h-13.9v5.4c0,0.3-0.3,0.6-0.6,0.6h-6L-952.9,582.3z
		 M-931.3,579.9h33.1v-5.5h-33.1V579.9z M-980.6,579.9h33.1v-5.5h-33.1V579.9z M-928.5,552.4l38.1,0l-13.4-12.5h-24.7V552.4z"/>
</g>
<g>
	<path d="M-1198.7,653.3c-2.6-0.5-4.6-2.5-5.1-5.1l-0.1-0.3h-2.2c-3,0-5.4-2.4-5.4-5.4v-23.6c0-3,2.4-5.4,5.4-5.4h51.1
		c1.3,0,2.6,0.5,3.5,1.4c1.4,1.3,2.7,2.7,3.9,4.3c0.1,0.1,0.3,0.2,0.4,0.5c1,1.4,2,2.9,2.8,4.5l0.1,0.2h5.6c0.3,0,0.6,0.2,0.7,0.5
		l1.9,4.3c0.1,0.2,0.1,0.4,0,0.6c-0.1,0.2-0.2,0.4-0.4,0.5c-0.1,0.1-0.2,0.1-0.3,0.1c-0.3,0-0.6-0.2-0.7-0.5l-1.7-3.9h-4.2l0.2,0.5
		c2.2,5,3.5,10.3,3.9,15.8c0.2,2.9-2,5.5-5,5.6c-0.1,0-0.2,0-0.3,0h-6.4l-0.1,0.3c-0.6,3-3.3,5.3-6.4,5.3c-0.4,0-0.9,0-1.3-0.1
		c-2.6-0.5-4.6-2.5-5.1-5.1l-0.1-0.3h-26.8l-0.1,0.3c-0.6,3-3.3,5.3-6.4,5.3C-1197.8,653.5-1198.3,653.4-1198.7,653.3z
		 M-1202.3,647.1c0,2.7,2.2,4.9,4.8,5l0,0h0.1c2.7,0,5-2.2,5-5c0-2.7-2.2-5-5-5C-1200.1,642.1-1202.3,644.4-1202.3,647.1z
		 M-1162.6,647.1c0,2.7,2.1,4.9,4.8,5l0,0h0.2c2.7,0,5-2.2,5-5c0-2.7-2.2-5-5-5C-1160.4,642.1-1162.6,644.4-1162.6,647.1z
		 M-1205.8,646.3h2l0.1-0.3c0.6-3,3.3-5.3,6.4-5.3c0.4,0,0.9,0,1.3,0.1c2.6,0.5,4.6,2.5,5.1,5.1l0.1,0.3h26.8l0.1-0.3
		c0.6-3,3.3-5.3,6.4-5.3c0.4,0,0.9,0,1.3,0.1c2.6,0.5,4.6,2.5,5.1,5.1l0.1,0.3h6.4c1,0,2-0.4,2.7-1.2c0.7-0.7,1.1-1.7,1-2.8
		c-0.1-1.1-0.2-2.2-0.4-3.4l0-0.3l-0.3,0c-13.2-0.3-16-5.8-16.6-8.2l-0.1-0.3h-51.6v12.3c0,1,0.4,2,1.1,2.7s1.7,1.1,2.7,1.1
		L-1205.8,646.3z M-1148.5,620.6h-16.1v8.1h5.9c0.9,0,1.7,0.6,1.9,1.5c0.4,1.5,2.6,6.6,14.6,7l0.4,0l-0.1-0.4
		c-0.7-3.9-1.9-7.6-3.7-11.1l-0.1-0.1l0,0c-0.8-1.6-1.8-3.2-2.8-4.7L-1148.5,620.6z M-1200.6,620.6h-9.3v8.1h9.4L-1200.6,620.6z
		 M-1189.1,620.6h-9.9v8.1h9.8L-1189.1,620.6z M-1177.6,620.6h-9.9v8.1h9.9L-1177.6,620.6z M-1166.2,620.6h-9.9v8.1h9.9
		L-1166.2,620.6z M-1152.5,616c-0.7-0.6-1.6-1-2.5-1h-51.1c-2,0-3.7,1.6-3.8,3.5l0,0.4h60.3l-0.5-0.6
		C-1150.9,617.6-1151.7,616.8-1152.5,616L-1152.5,616z"/>
	<path d="M-1198.7,653.3c-2.6-0.5-4.6-2.5-5.1-5.1l-0.1-0.3h-2.2c-3,0-5.4-2.4-5.4-5.4v-23.6c0-3,2.4-5.4,5.4-5.4h51.1
		c1.3,0,2.6,0.5,3.5,1.4c1.4,1.3,2.7,2.7,3.9,4.3c0.1,0.1,0.3,0.2,0.4,0.5c1,1.4,2,2.9,2.8,4.5l0.1,0.2h5.6c0.3,0,0.6,0.2,0.7,0.5
		l1.9,4.3c0.1,0.2,0.1,0.4,0,0.6c-0.1,0.2-0.2,0.4-0.4,0.5c-0.1,0.1-0.2,0.1-0.3,0.1c-0.3,0-0.6-0.2-0.7-0.5l-1.7-3.9h-4.2l0.2,0.5
		c2.2,5,3.5,10.3,3.9,15.8c0.2,2.9-2,5.5-5,5.6c-0.1,0-0.2,0-0.3,0h-6.4l-0.1,0.3c-0.6,3-3.3,5.3-6.4,5.3c-0.4,0-0.9,0-1.3-0.1
		c-2.6-0.5-4.6-2.5-5.1-5.1l-0.1-0.3h-26.8l-0.1,0.3c-0.6,3-3.3,5.3-6.4,5.3C-1197.8,653.5-1198.3,653.4-1198.7,653.3z
		 M-1202.3,647.1c0,2.7,2.2,4.9,4.8,5l0,0h0.1c2.7,0,5-2.2,5-5c0-2.7-2.2-5-5-5C-1200.1,642.1-1202.3,644.4-1202.3,647.1z
		 M-1162.6,647.1c0,2.7,2.1,4.9,4.8,5l0,0h0.2c2.7,0,5-2.2,5-5c0-2.7-2.2-5-5-5C-1160.4,642.1-1162.6,644.4-1162.6,647.1z
		 M-1205.8,646.3h2l0.1-0.3c0.6-3,3.3-5.3,6.4-5.3c0.4,0,0.9,0,1.3,0.1c2.6,0.5,4.6,2.5,5.1,5.1l0.1,0.3h26.8l0.1-0.3
		c0.6-3,3.3-5.3,6.4-5.3c0.4,0,0.9,0,1.3,0.1c2.6,0.5,4.6,2.5,5.1,5.1l0.1,0.3h6.4c1,0,2-0.4,2.7-1.2c0.7-0.7,1.1-1.7,1-2.8
		c-0.1-1.1-0.2-2.2-0.4-3.4l0-0.3l-0.3,0c-13.2-0.3-16-5.8-16.6-8.2l-0.1-0.3h-51.6v12.3c0,1,0.4,2,1.1,2.7s1.7,1.1,2.7,1.1
		L-1205.8,646.3z M-1148.5,620.6h-16.1v8.1h5.9c0.9,0,1.7,0.6,1.9,1.5c0.4,1.5,2.6,6.6,14.6,7l0.4,0l-0.1-0.4
		c-0.7-3.9-1.9-7.6-3.7-11.1l-0.1-0.1l0,0c-0.8-1.6-1.8-3.2-2.8-4.7L-1148.5,620.6z M-1200.6,620.6h-9.3v8.1h9.4L-1200.6,620.6z
		 M-1189.1,620.6h-9.9v8.1h9.8L-1189.1,620.6z M-1177.6,620.6h-9.9v8.1h9.9L-1177.6,620.6z M-1166.2,620.6h-9.9v8.1h9.9
		L-1166.2,620.6z M-1152.5,616c-0.7-0.6-1.6-1-2.5-1h-51.1c-2,0-3.7,1.6-3.8,3.5l0,0.4h60.3l-0.5-0.6
		C-1150.9,617.6-1151.7,616.8-1152.5,616L-1152.5,616z"/>
	<path d="M-1200.5,647.1c0,1.7,1.4,3.1,3.1,3.1c1.7,0,3.1-1.4,3.1-3.1c0-1.7-1.4-3.1-3.1-3.1C-1199.1,644-1200.5,645.4-1200.5,647.1
		z M-1199.2,647.1c0-1,0.8-1.9,1.9-1.9c1,0,1.9,0.8,1.9,1.9c0,1-0.8,1.8-1.9,1.8C-1198.4,649-1199.2,648.1-1199.2,647.1z"/>
	<path d="M-1200.5,647.1c0,1.7,1.4,3.1,3.1,3.1c1.7,0,3.1-1.4,3.1-3.1c0-1.7-1.4-3.1-3.1-3.1C-1199.1,644-1200.5,645.4-1200.5,647.1
		z M-1199.2,647.1c0-1,0.8-1.9,1.9-1.9c1,0,1.9,0.8,1.9,1.9c0,1-0.8,1.8-1.9,1.8C-1198.4,649-1199.2,648.1-1199.2,647.1z"/>
	<path d="M-1160.7,647.1c0,1.7,1.4,3.1,3.1,3.1c1.7,0,3.1-1.4,3.1-3.1c0-1.7-1.4-3.1-3.1-3.1C-1159.3,644-1160.7,645.4-1160.7,647.1
		z M-1159.5,647.1c0-1,0.8-1.9,1.9-1.9c1,0,1.9,0.8,1.9,1.9c0,1-0.8,1.8-1.9,1.8C-1158.6,649-1159.5,648.1-1159.5,647.1z"/>
	<path d="M-1160.7,647.1c0,1.7,1.4,3.1,3.1,3.1c1.7,0,3.1-1.4,3.1-3.1c0-1.7-1.4-3.1-3.1-3.1C-1159.3,644-1160.7,645.4-1160.7,647.1
		z M-1159.5,647.1c0-1,0.8-1.9,1.9-1.9c1,0,1.9,0.8,1.9,1.9c0,1-0.8,1.8-1.9,1.8C-1158.6,649-1159.5,648.1-1159.5,647.1z"/>
</g>
<g>
	<circle cx="-911.1" cy="42.7" r="0.8"/>
	<rect x="-924.9" y="45.5" width="1.5" height="1.5"/>
	<rect x="-894.1" y="65.6" width="3.9" height="1.5"/>
	<rect x="-927.3" y="40.7" width="1.5" height="1.5"/>
	<path d="M-902.8,71.9h4.7c0.4,0,0.8-0.3,0.8-0.8v-4.7c0-0.4-0.3-0.8-0.8-0.8h-4.7c-0.4,0-0.8,0.3-0.8,0.8v4.7
		C-903.6,71.5-903.2,71.9-902.8,71.9z M-902,67.1h3.2v3.2h-3.2V67.1z"/>
	<path d="M-917.5,46l3.2,0.6l-3.3,2.4c-0.1,0.1-0.1,0.1-0.2,0.2c-0.1,0.2-0.1,0.4-0.1,0.6c0,0.2,0.2,0.4,0.3,0.5l0,0
		c2.3,1.6,5.1,2.4,7.9,2.4h7l0.1,0.3c0.5,1.3,1.5,2.4,2.7,3.1c1.4,0.8,2.6,1.2,3.4,1.2c0.4,0,0.7-0.3,0.7-0.7v-3.8h1.5
		c3.2,0,6.3-0.6,9.4-1.7l7.6-2.8l0.2,0.3c1.4,2.5,4.1,4.1,7.1,4.1h0c0.1,0,0.1,0,0.2,0c0.2,0,0.4-0.2,0.5-0.3
		c0.1-0.2,0.1-0.4,0.1-0.6l-0.8-3.4c-0.2-0.9-0.5-1.7-0.9-2.5l-0.3-0.7l0.2-0.2c1.3-1.5,2.2-3.2,2.7-5.1l0.4-1.5c0-0.1,0-0.1,0-0.2
		c0-0.4-0.3-0.7-0.7-0.7h-0.9c-2.6,0-5,1.2-6.5,3.3l-0.9,1.2l-5.3-2.3c-1.5-0.7-3.2-1.1-4.9-1.2l-5.9-0.4c-0.7-0.1-1.3-0.6-1.4-1.3
		c-0.3-1.5-0.2-3,0.2-4.4l0.2-0.9c0-0.1,0-0.1,0-0.2c0-0.2-0.1-0.4-0.2-0.5c-0.1-0.1-0.3-0.2-0.5-0.2c-0.1,0-0.1,0-0.2,0
		c-1.6,0-3.1,0.6-4.3,1.7l-0.2,0.2c-1.2,1.1-1.9,2.7-2,4.4l0,0.9l-0.4,0c-1.2,0.1-2.3,0.2-3.4,0.4l-6.6,1.2
		c-1.2,0.2-2.3,0.3-3.5,0.3h-5c-0.4,0-0.7,0.3-0.7,0.7c0,1.7,0.7,3.3,1.8,4.4C-918.9,45.5-918.3,45.8-917.5,46z M-903,49.4
		c0,0.8,0,1.2,0,1.4v0.4h-6.7c-1.9,0-3.9-0.5-5.6-1.3l-0.6-0.3l3.5-2.6l5.1,1.3c1.3,0.3,2.6,0.6,3.9,0.7l0.4,0L-903,49.4z
		 M-885.5,49.6c-2.8,1-5.8,1.6-8.9,1.6h-1.4v-2h1.2c2.6,0,5.2-0.3,7.7-0.9l1-0.2c1.3-0.3,2.6-0.5,4-0.5l0.1,0.8L-885.5,49.6z
		 M-919.8,41.2h4.3c1.3,0,2.5-0.1,3.8-0.3l6.6-1.2c1.4-0.3,2.9-0.4,4.3-0.5c0.4,0,0.7-0.3,0.7-0.7l0-1.6c0-1.3,0.6-2.5,1.5-3.4
		l0.2-0.2c0.5-0.5,1.1-0.8,1.8-1.1l0.7-0.2l-0.1,0.7c-0.3,1.4-0.3,2.9,0,4.3c0.3,1.3,1.4,2.4,2.8,2.5l5.9,0.4c1.5,0.1,3,0.5,4.4,1.1
		l5.8,2.5c0.1,0,0.2,0.1,0.3,0.1c0.2,0,0.5-0.1,0.6-0.3l1.2-1.6c1.1-1.5,2.8-2.5,4.7-2.6l0.6-0.1l-0.2,0.6c-0.5,1.9-1.4,3.6-2.8,5
		l0,0c-0.2,0.2-0.3,0.6-0.1,0.9l0.6,1.2c0.3,0.7,0.6,1.4,0.8,2.2l0.6,2.4l-0.7-0.2c-1.9-0.5-3.5-1.7-4.4-3.5l-0.2-0.5l0-0.1
		c0,0,0,0,0,0l0,0c0,0,0,0,0,0l0,0c0,0,0,0,0,0l0,0l0,0c0,0,0,0-0.1,0l0,0c0,0,0,0,0,0l0,0c0,0,0,0,0,0l0,0l0,0c0,0-0.1,0-0.1,0
		l-0.1,0c-1.5-0.4-3.1-0.6-4.7-0.6s-3.2,0.2-4.7,0.6l-1,0.2c-2.4,0.6-4.9,0.9-7.3,0.9h-1.9c-0.4,0-0.7,0.3-0.7,0.7v7.1l-0.6-0.2
		c-0.5-0.2-0.9-0.4-1.3-0.7c-1.4-0.8-2.3-2.2-2.3-3.7l0,0c0-0.2,0-1.7,0-2.6c0-0.4-0.3-0.7-0.7-0.7c-1.6-0.1-3.2-0.4-4.7-0.8
		l-5.5-1.4l0,0c0,0,0,0,0,0l-4.8-1c-0.5-0.1-0.9-0.3-1.2-0.7c-0.6-0.6-1-1.3-1.2-2.1L-919.8,41.2z"/>
	<rect x="-873.9" y="65.6" width="1.5" height="1.5"/>
	<rect x="-878.7" y="68" width="1.5" height="1.5"/>
	<path d="M-891.4,81.1l1.9-1c0.3-0.1,0.4-0.4,0.4-0.7V79h23.3v0h1.5v0v-1.5v-3.2v-1.5V26.9v-0.9v-0.6h-65.5v0.6v0.9v45.9v1.5v3.2V79
		v0h1.5v0h23.3v0.4c0,0.3,0.2,0.6,0.4,0.7l1.9,1l1.5,0.3h7.9L-891.4,81.1z M-907.5,77.5h-20.6v-3.2h19.8v1.6c0,0.4,0.3,0.8,0.8,0.8
		V77.5z M-890.5,78.9l-1.8,0.9h-9.1l-1.8-0.9v-2.3h12.7V78.9z M-887,75.1h-19.8V62.4h19.8V75.1z M-865.7,77.5h-20.6v-0.8
		c0.4,0,0.8-0.3,0.8-0.8v-1.6h19.8V77.5z M-865.7,72.7h-19.8V61.6c0-0.4-0.3-0.8-0.8-0.8h-21.3c-0.4,0-0.8,0.3-0.8,0.8v11.1h-3.3
		l0.8-0.7c0.5-0.4,1-1,1-2.1c0-1.2-0.8-1.9-1.3-2.4c-0.5-0.4-0.8-0.7-0.8-1.2c0-0.4-0.3-0.8-0.8-0.8c-0.4,0-0.8,0.3-0.8,0.8
		c0,1.2,0.8,1.9,1.3,2.4c0.5,0.4,0.8,0.7,0.8,1.2c0,0.5-0.2,0.7-0.8,1.2c-0.4,0.3-0.8,0.7-1.1,1.3l-0.1,0.3h-4.2l0.8-0.7
		c0.5-0.4,1-1,1-2.1c0-1.2-0.8-1.9-1.3-2.4c-0.5-0.4-0.8-0.7-0.8-1.2c0-0.5,0.2-0.7,0.8-1.2c0.6-0.5,1.3-1.1,1.3-2.4
		c0-0.4-0.3-0.8-0.8-0.8s-0.8,0.3-0.8,0.8c0,0.5-0.2,0.7-0.8,1.2c-0.6,0.5-1.3,1.1-1.3,2.4c0,1.2,0.8,1.9,1.3,2.4
		c0.5,0.4,0.8,0.7,0.8,1.2c0,0.5-0.2,0.7-0.8,1.2c-0.4,0.3-0.8,0.7-1.1,1.3l-0.1,0.3h-4.2l0.8-0.7c0.5-0.4,1-1,1-2.1
		c0-1.2-0.8-1.9-1.3-2.4c-0.5-0.4-0.8-0.7-0.8-1.2c0-0.5,0.2-0.7,0.8-1.2c0.6-0.5,1.3-1.1,1.3-2.4c0-0.4-0.3-0.8-0.8-0.8
		s-0.8,0.3-0.8,0.8c0,0.5-0.2,0.7-0.8,1.2c-0.6,0.5-1.3,1.1-1.3,2.4c0,1.2,0.8,1.9,1.3,2.4c0.5,0.4,0.8,0.7,0.8,1.2
		c0,0.5-0.2,0.7-0.8,1.2c-0.4,0.3-0.8,0.7-1.1,1.3l-0.1,0.3h-2.9V26.9h62.4V72.7z"/>
	<rect x="-885.8" y="56.1" width="1.5" height="1.5"/>
	<path d="M-869.4,61.9c-0.6-0.2-1.2-0.6-1.6-1.1l-0.2-0.3l0.2-0.3c0.4-0.5,0.9-0.9,1.6-1.1c0.2-0.1,0.3-0.2,0.4-0.4
		c0.1-0.2,0.1-0.4,0-0.6c-0.1-0.3-0.4-0.5-0.7-0.5c-0.1,0-0.2,0-0.3,0c-0.7,0.3-1.4,0.7-2,1.3l-0.3,0.3l-0.3-0.3
		c-1.2-1.1-2.7-1.6-4.3-1.6c-1.7,0-3.4,0.7-4.6,1.9l-0.7,0.7c-0.3,0.3-0.3,0.8,0,1.1l0.7,0.7c1.2,1.2,2.9,1.9,4.6,1.9
		c1.6,0,3.1-0.6,4.3-1.6l0.3-0.3l0.3,0.3c0.5,0.6,1.2,1,2,1.3l0,0c0.1,0,0.2,0,0.3,0c0,0,0,0,0,0c0.3,0,0.6-0.2,0.7-0.5
		c0.1-0.2,0.1-0.4,0-0.6C-869,62.1-869.2,61.9-869.4,61.9z M-876.7,62.1c-1.7,0-3.5-0.6-3.5-1.6s1.7-1.6,3.5-1.6
		c1.7,0,3.5,0.6,3.5,1.6S-875,62.1-876.7,62.1z"/>
	<rect x="-894.1" y="69.2" width="2.7" height="1.5"/>
</g>
<g>
	<g>
		<path d="M-1138.1,373.9c-1.3,0-2.6,0-3.9,0c-0.3,0-0.7,0-1,0c0-2.8,0-5.7,0-8.5c0-4.7,0-9.4,0-14.1c0-0.7,0-1.4,0-2
			c1.5,0.4,2.9,0.8,4.3,1.3c0.7,0.2,1-0.8,0.3-1c-1.7-0.5-3.4-1-5.1-1.5c-0.2-0.1-0.4-0.1-0.7-0.2c-6.9-1.8-14.1-2.8-21.2-3.4
			c-2.1-0.2-4.2-0.3-6.3-0.3c-7.3-0.2-14.6,0.1-21.8,1c0-3.7,0-7.3,0-11c0-0.3,0-0.6,0-1c0.2,0,0.4-0.2,0.4-0.4
			c0.2-0.9,0.5-1.9,0.7-2.8c0.7,0,1.3,0,2,0c0.2,0,0.4-0.1,0.5-0.3c0.4-1,0.8-2,1.3-2.9c0.1-0.2,0.1-0.5-0.1-0.7
			c-0.1-0.1-0.2-0.1-0.4-0.1c-0.8,0-1.6,0-2.3,0c0.5-2.5,1.1-5.1,1.6-7.6c0.2,0,0.4,0,0.6,0c0.2,0,0.4,0,0.5,0
			c0.2,0,0.4-0.1,0.5-0.3c0.1-0.1,0.1-0.3,0.1-0.4c-0.3-1.1-0.5-2.1-0.8-3.2c-0.1-0.2-0.3-0.4-0.5-0.4c-2.9,0-5.9,0-8.8,0
			c0-1,0-2.1,0-3.1c0-0.7-1.1-0.7-1.1,0c0,1,0,2.1,0,3.1c-0.1,0-0.2,0-0.3,0c-0.4,0-0.7,0-1.1,0c0-1.6,0-3.3,0-4.9
			c0-0.7-1.1-0.7-1.1,0c0,1.6,0,3.3,0,4.9c-2.9,0-5.9,0-8.8,0c0,0,0,0,0,0c-0.2,0-0.5,0.2-0.5,0.4c-0.3,1.1-0.5,2.1-0.8,3.2
			c-0.1,0.3,0.2,0.7,0.5,0.7c0.4,0,0.8,0,1.2,0c0.6,2.5,1.1,5.1,1.7,7.6c-0.7,0-1.5,0-2.2,0c-0.1,0-0.1,0-0.2,0
			c-0.5,0-0.6,0.5-0.5,0.8c0.4,1,0.8,2,1.3,2.9c0.1,0.2,0.3,0.3,0.5,0.3c0.7,0,1.3,0,2,0c0.2,0.9,0.5,1.9,0.7,2.8
			c0,0.2,0.2,0.3,0.4,0.4c0,3.7,0,7.3,0,11c0,1.1,0,2.3,0,3.4c-0.6,0.1-1.1,0.3-1.7,0.4c0,0,0,0,0,0c-1.7,0.4-3.3,0.9-4.9,1.5
			c-0.7,0.2-0.4,1.3,0.3,1c1.4-0.5,2.8-0.9,4.3-1.3c0,2.8,0,5.6,0,8.4c0,4.7,0,9.4,0,14.1c0,0.7,0,1.5,0,2.2c-1.6,0-3.3,0-4.9,0
			c-0.1,0-0.3,0-0.4,0c-0.7,0-0.7,1.1,0,1.1c1.3,0,2.6,0,3.9,0c0.7,0,1.4,0,2.1,0c0,0,0,0,0,0c1.5,0,3,0,4.4,0c3.7,0,7.5,0,11.2,0
			c4.9,0,9.9,0,14.8,0c5.1,0,10.1,0,15.2,0c4.1,0,8.2,0,12.4,0c2.1,0,4.2,0,6.4,0c0.1,0,0.2,0,0.3,0c0,0,0,0,0,0c1.6,0,3.3,0,4.9,0
			c0.1,0,0.3,0,0.4,0C-1137.4,375-1137.4,373.9-1138.1,373.9z M-1200.8,364.1c0-3.3,0-6.6,0-9.8c8-1.6,16.2-2.2,24.4-2.3
			c0,2.2,0,4.5,0,6.7c-3.5,0-7,0-10.5,0c0-0.1,0-0.2,0-0.3c0-0.6,0-1.2,0-1.8c0-0.7-1.1-0.7-1.1,0c0,0.7,0,1.4,0,2.1
			c-0.5,0-1.1,0-1.6,0c-2.4,0-4.8,0-7.3,0c0,0,0,0,0,0c-0.7,0-0.7,1.1,0,1.1c2.1,0,4.2,0,6.4,0c0.9,0,1.7,0,2.6,0c0,2.3,0,4.6,0,6.9
			c-0.5,0-1.1,0-1.6,0c-2.4,0-4.8,0-7.3,0c0,0,0,0,0,0c-0.7,0-0.7,1.1,0,1.1c2.1,0,4.2,0,6.4,0c0.9,0,1.7,0,2.6,0c0,0.2,0,0.3,0,0.5
			c0,0.6,0,1.2,0,1.8c0,0.7,1.1,0.7,1.1,0c0-0.8,0-1.5,0-2.3c3.5,0,7,0,10.5,0c0,0,0,0,0.1,0c0,2,0,4.1,0,6.1c0,0,0,0.1,0,0.1
			c-1.6,0-3.3,0-4.9,0c-4.9,0-9.8,0-14.6,0c-1.6,0-3.2,0-4.8,0C-1200.8,370.6-1200.8,367.4-1200.8,364.1z M-1150.9,364.2
			c0,3.2,0,6.5,0,9.7c-0.4,0-0.7,0-1.1,0c-4.6,0-9.3,0-13.9,0c-3.1,0-6.3,0-9.4,0c0-2.1,0-4.1,0-6.2c3.5,0,7.1,0,10.6,0
			c0,0.2,0,0.3,0,0.5c0,0.6,0,1.2,0,1.8c0,0.7,1.1,0.7,1.1,0c0-0.8,0-1.5,0-2.3c0.5,0,1.1,0,1.6,0c2.4,0,4.8,0,7.3,0c0,0,0,0,0,0
			c0.7,0,0.7-1.1,0-1.1c-2.1,0-4.2,0-6.4,0c-0.8,0-1.7,0-2.5,0c0-2.3,0-4.6,0-6.9c0.5,0,1.1,0,1.6,0c2.4,0,4.8,0,7.3,0c0,0,0,0,0,0
			c0.7,0,0.7-1.1,0-1.1c-2.1,0-4.2,0-6.4,0c-0.8,0-1.7,0-2.5,0c0-0.1,0-0.2,0-0.3c0-0.6,0-1.2,0-1.8c0-0.7-1.1-0.7-1.1,0
			c0,0.7,0,1.4,0,2.1c-3.5,0-7,0-10.5,0c0,0-0.1,0-0.1,0c0-2.2,0-4.4,0-6.6c0,0,0-0.1,0-0.1c1,0,2,0,2.9,0
			c7.2,0.2,14.4,0.9,21.5,2.2C-1150.9,357.6-1150.9,360.9-1150.9,364.2z M-1176.4,366.6c-3.5,0-7,0-10.5,0c0-2.3,0-4.6,0-6.9
			c3.5,0,7,0,10.5,0c0,0,0,0,0.1,0c0,0.5,0,1,0,1.4C-1176.4,363-1176.4,364.8-1176.4,366.6z M-1175.3,364.7c0-1.6,0-3.3,0-4.9
			c3.5,0,7.1,0,10.6,0c0,2.3,0,4.6,0,6.9c-3.5,0-7,0-10.5,0c0,0-0.1,0-0.1,0C-1175.3,366-1175.3,365.3-1175.3,364.7z M-1200,346.2
			c-1.5,0.3-3.1,0.6-4.6,0.9c-0.1,0-0.2,0.1-0.3,0.1c-0.1,0-0.3,0.1-0.4,0.1c-0.1,0-0.1,0-0.2,0.1c0-3.6,0-7.2,0-10.8
			c0-1.1,0-2.2,0-3.3c3.6,0,7.3,0,10.9,0c0.1,0,0.1,0,0.2,0c0,3.7,0,7.4,0,11.1c0,0.3,0,0.7,0,1
			C-1196.3,345.5-1198.1,345.8-1200,346.2z M-1193.9,332.1c-3.7,0-7.4,0-11.2,0c-0.3,0-0.7,0-1,0c-0.2-0.7-0.4-1.4-0.5-2.2
			c2.5,0,5.1,0,7.6,0c1.1,0,2.2,0,3.3,0c0.8,0,1.5,0,2.3,0C-1193.6,330.7-1193.8,331.4-1193.9,332.1z M-1199.1,326
			c-1.2,0-2.4,0-3.6,0c-0.3-2.5-0.6-5.1-0.9-7.6c0.7,0,1.4,0,2,0c0.8,0,1.6,0,2.4,0c0.9,0,1.8,0,2.8,0c-0.3,2.5-0.6,5.1-0.8,7.6
			C-1197.9,326-1198.5,326-1199.1,326z M-1196.2,326c0.3-2.5,0.6-5.1,0.8-7.6c1.5,0,3,0,4.5,0c-0.5,2.5-1.1,5.1-1.6,7.6
			C-1193.7,326-1194.9,326-1196.2,326z M-1189.8,315.1c0.2,0.7,0.3,1.4,0.5,2.1c-0.3,0-0.6,0-0.9,0c-1.9,0-3.8,0-5.6,0
			c-0.9,0-1.8,0-2.6,0c-0.8,0-1.6,0-2.4,0c-1.1,0-2.2,0-3.4,0c-1.9,0-3.8,0-5.6,0c-0.3,0-0.6,0-0.9,0c0.2-0.7,0.3-1.4,0.5-2.1
			c3.3,0,6.5,0,9.8,0C-1196.9,315.1-1193.4,315.1-1189.8,315.1z M-1209.1,318.3c1.5,0,3,0,4.5,0c0.3,2.5,0.6,5.1,0.9,7.6
			c-1.2,0-2.4,0-3.7,0C-1208,323.4-1208.6,320.9-1209.1,318.3z M-1210.1,327c0.7,0,1.5,0,2.2,0c0,0,0,0,0,0c1.6,0,3.1,0,4.7,0
			c2.1,0,4.3,0,6.4,0c0.1,0,0.2,0,0.3,0c1.5,0,3,0,4.4,0c0,0,0,0,0,0c0.7,0,1.4,0,2.2,0c-0.3,0.6-0.5,1.2-0.8,1.8c-0.7,0-1.4,0-2,0
			c-2.8,0-5.5,0-8.3,0c-1.1,0-2.2,0-3.3,0c-1,0-2,0-3,0c-0.7,0-1.4,0-2,0C-1209.6,328.3-1209.9,327.7-1210.1,327z M-1207.6,365.4
			c0-4.7,0-9.4,0-14.1c0-0.8,0-1.5,0-2.3c0.7-0.2,1.4-0.4,2.2-0.5c0,0,0.1,0,0.1,0c0.2-0.1,0.4-0.1,0.6-0.1
			c3.5-0.8,7.1-1.5,10.7-1.9c0,0,0,0,0,0c4.9-0.6,9.8-1,14.7-1.1c1.5,0,2.9,0,4.4,0c0,0,0,0,0.1,0c3.7,0,7.5,0.2,11.2,0.5
			c0.2,0,0.3,0,0.5,0c0,0,0,0,0,0c4.2,0.4,8.3,1,12.5,1.8c1.2,0.2,2.3,0.5,3.5,0.7c0.6,0.1,1.2,0.3,1.7,0.4c0.3,0.1,0.6,0.1,0.9,0.2
			c0.1,0,0.2,0,0.3,0.1c0.1,0,0.1,0,0.2,0c0,2.9,0,5.8,0,8.7c0,4.7,0,9.4,0,14.1c0,0.7,0,1.5,0,2.2c-1.9,0-3.8,0-5.7,0
			c0-3.3,0-6.5,0-9.8c0-3.4,0-6.9,0-10.3c0,0,0-0.1,0-0.1c0-0.2-0.1-0.4-0.4-0.4c-9.4-1.8-19.1-2.6-28.7-2.4
			c-7.6,0.2-15.1,0.9-22.6,2.4c-0.2,0-0.4,0.3-0.4,0.5c0,3.5,0,6.9,0,10.4c0,3.2,0,6.5,0,9.7c-1.9,0-3.7,0-5.6,0c0,0-0.1,0-0.1,0
			C-1207.6,371.1-1207.6,368.2-1207.6,365.4z"/>
		<path d="M-1178.3,331.7c-0.6,0.3-1.2,0.7-1.8,1c-0.2,0.1-0.4,0.5-0.2,0.7c0.3,0.4,0.5,0.7,0.8,1.1c0.2,0.2,0.3,0.4,0.5,0.6
			c0.1,0.2,0.3,0.4,0.5,0.5c0.2,0.1,0.4,0,0.6,0c0.4,0,0.8-0.1,1.2-0.1c2.3-0.2,4.5-0.5,6.8-0.7c0.2,0,0.4,0,0.6-0.1c0,0,0,0,0,0
			c0,0,0.1,0,0.1,0c7.1-1.7,14.2-3.7,21-6.6c1.7-0.7,3.3-1.5,4.9-2.5c0.9-0.6,1.8-1.2,2.5-1.9c0.4-0.4,0.7-0.8,0.9-1.4
			c0.1-0.1,0.1-0.3,0.1-0.4c0-0.4-0.4-0.7-0.7-0.9c-1.9-1.5-4.7-2-7.1-1.7c-1.8,0.2-3.5,0.8-5.2,1.3c-1.9,0.6-3.8,1.3-5.7,2
			c-1.4-0.6-2.8-1.3-4.2-1.9c-2.1-0.9-4.2-1.9-6.3-2.8c-0.4-0.2-1.2-0.7-1.6-0.5c-0.9,0.4-1.7,0.9-2.6,1.3c-0.1,0.1-0.3,0.2-0.4,0.2
			c-0.3,0.2-0.4,0.6-0.1,0.9c2.5,2,5.1,4.1,7.6,6.1c-1.9,0.8-3.8,1.6-5.6,2.5c-1.8-0.6-3.5-1.2-5.3-1.9c-0.6-0.2-1.3-0.4-1.9-0.7
			c-0.3-0.1-0.9,0.3-1.2,0.4c-0.5,0.2-1.1,0.5-1.6,0.7c-0.1,0-0.2,0.1-0.3,0.1c-0.4,0.2-0.6,0.6-0.2,0.9
			C-1180.8,329.2-1179.6,330.5-1178.3,331.7z M-1172.2,319.5c0.7-0.4,1.4-0.7,2-1.1c3.4,1.5,6.8,3.1,10.3,4.6
			c0.4,0.2,0.9,0.4,1.3,0.6c0,0,0.1,0,0.1,0.1c0.3,0.1,0.7,0.3,1,0.4c0.8,0.3,1.5,0.6,2.3,1c-2.2,0.9-4.5,1.8-6.7,2.7
			c-2.7-2.2-5.5-4.4-8.2-6.6C-1170.8,320.6-1171.5,320.1-1172.2,319.5z M-1179,327C-1178.9,327-1178.9,327-1179,327
			c0.1,0,0.1,0,0.2,0c0.4,0.1,0.7,0.3,1.1,0.4c2,0.7,3.9,1.4,5.9,2.1c0.2,0.1,0.4,0,0.6-0.1c0.4-0.2,0.8-0.4,1.2-0.6
			c1.6-0.8,3.2-1.5,4.9-2.2c0.8,0.7,1.6,1.3,2.5,2c0,0,0.1,0.1,0.1,0.1c0.1,0.1,0.3,0.2,0.5,0.1c2.7-1.1,5.5-2.2,8.2-3.3
			c0.2,0,0.4-0.2,0.4-0.4c0,0,0,0,0,0c0,0,0-0.1,0-0.1c0,0,0,0,0,0c0,0,0,0,0,0c0,0,0-0.1,0-0.1c0,0,0,0,0,0
			c-0.1-0.2-0.2-0.4-0.4-0.4c-0.8-0.3-1.6-0.7-2.4-1c-0.3-0.1-0.5-0.2-0.8-0.3c1.4-0.5,2.9-1,4.3-1.5c0.9-0.3,1.9-0.6,2.8-0.9
			c0.4-0.1,0.9-0.2,1.3-0.3c0.2,0,0.4-0.1,0.6-0.1c0.1,0,0.2,0,0.3-0.1c0,0,0.2,0,0.2,0c1-0.1,2-0.1,3,0.1c-0.6,0.4-1.2,0.7-1.8,1.1
			c-0.6,0.4-0.1,1.3,0.5,0.9c0.9-0.5,1.8-1.1,2.7-1.6c0,0,0,0,0,0c0.8,0.3,1.5,0.7,2.1,1.2c-0.1,0.2-0.2,0.3-0.3,0.5c0,0,0,0,0,0
			c0,0,0,0,0,0c-0.1,0.1-0.1,0.1-0.2,0.2c-0.1,0.1-0.2,0.3-0.4,0.4c-0.2,0.1-0.3,0.3-0.5,0.4c-0.1,0.1-0.2,0.1-0.3,0.2c0,0,0,0,0,0
			c0,0,0,0,0,0c-0.1,0-0.1,0.1-0.2,0.1c-0.5,0.4-1.1,0.7-1.7,1.1c-1.7,1-3.5,1.8-5.4,2.6c-6.3,2.6-13,4.4-19.6,6
			c-2.9,0.3-5.9,0.6-8.8,0.9c-0.3-0.4-0.6-0.8-0.9-1.2c0.6-0.4,1.2-0.7,1.9-1.1c0.3-0.2,0.4-0.6,0.1-0.9c-1.2-1.2-2.5-2.4-3.7-3.6
			C-1180.2,327.6-1179.6,327.3-1179,327z"/>
	</g>
</g>
<g transform="translate(0,-1020.3622)">
	<g transform="matrix(0.70710678,-0.70710678,0.70710678,0.70710678,-727.89285,315.33551)">
		<g transform="translate(9.6135846,-9.7746952)">
			<path d="M29.3,732.3c-2.4-2.6-5.8-4.4-9.6-4.9c-1-7.5-7.2-13.5-15-13.5l0,0l0,0c-8.5,0-15.3,6.9-15.3,15.3l0.1,13.1l0.1,13.1
				c0,1.2,1,2.3,2.3,2.3H4.9H18c8.4,0,15.3-6.6,15.3-15.1l0-0.2c0,0,0-0.1,0-0.1C33.3,738.4,31.8,734.9,29.3,732.3z M25.6,734.6
				c2,2,3.2,4.7,3.2,7.7l0,0.2c0,0,0,0.1,0,0.1c0,6-4.7,10.6-10.8,10.6H4.9H-5.9l0-10.8L-6,729.2c0-6,4.7-10.8,10.8-10.8v0
				c6,0,10.8,4.8,10.9,10.8c0,1.2,1,2.3,2.3,2.3C20.9,731.5,23.6,732.7,25.6,734.6z M7,724c-1.4-1.4-3.3-1.2-4.8-0.5
				c-1.4,0.7-2.6,1.8-3.2,3.2c-0.5,1.1,0,2.5,1.1,3c1.1,0.5,2.5,0,3-1.1c0,0,0,0,0,0c0.2-0.4,0.7-0.9,1-1c0.1,0,0,0,0.1,0
				c1.1,0.7,2.5,0.4,3.1-0.7C7.9,726,7.7,724.8,7,724L7,724z M-71.2,689.9c-0.9-0.9-2.3-0.9-3.2,0l-32,32c-0.9,0.9-0.9,2.3,0,3.2
				l8,8l8,8c0.9,0.9,2.3,0.9,3.2,0l3.2-3.2l21.6,43c0,0,0,0.1,0.1,0.1c2.6,4.3,7,7.7,12,8.8l48,14.2c0,0,0,0,0,0l1.2,0.3
				c0,0,0,0,0,0c4,1.1,8.3-0.9,9.9-4.8c1.3-3.3,0.5-6.3-0.8-8c-1.3-1.7-3-2.5-3-2.5c-0.1,0-0.2-0.1-0.2-0.1l-25-9.1
				c0.2-0.2,0.5-0.3,0.7-0.6c3.6-3.6,3.5-9.5-0.1-13.1l-14.2-14.2c0-0.2,0.1-0.4,0.2-0.6c0.2-0.7,0.4-1.4,0.5-2.2
				c0.3-1.5,0.4-2.9,0.4-4.4c-0.1-5.9-2.4-11.8-6.9-16.4L-57.1,711l1.9-1.9c0.9-0.9,0.9-2.3,0-3.2l-8-8L-71.2,689.9z M-72.8,694.7
				l3.2,3.2l-20.8,20.8c-0.9,0.9-0.9,2.3,0,3.2c0.9,0.9,2.3,0.9,3.2,0l0,0l20.8-20.8l0,0l6.4,6.4l-28.8,28.8l-6.4-6.4l-6.4-6.4
				L-72.8,694.7z M-42.9,731.6c3.7,3.7,5.6,8.5,5.6,13.2c0,1.2-0.1,2.4-0.3,3.5c-0.1,0.6-0.2,1.2-0.4,1.7c-0.2,0.7-0.3,1.2-0.5,1.6
				l-0.6,1.4l1.4,1.4l14.8,14.8c1.9,1.9,1.9,4.8,0.1,6.7c-1.4,1.4-3.3,1.7-5,1l-0.2-0.1c-0.5-0.2-1.1-0.6-1.5-1l-22.3-22.2l-3.2,3.2
				l22.3,22.3c0.6,0.6,1.4,1.1,2.1,1.6c0.2,0.2,0.5,0.3,0.8,0.4l0.1,0c0.1,0,0.2,0.1,0.3,0.1L3,793.1c0,0,0.7,0.4,1.3,1.2
				c0.6,0.8,1.1,1.6,0.2,3.6C3.8,799.6,2,800.6,0,800l-1.2-0.3l-48-14.2c-0.1,0-0.1,0-0.2,0c-3.5-0.7-7.3-3.5-9.2-6.7l-22-43.9
				c0-0.1-0.1-0.2-0.1-0.2l20.4-20.4L-42.9,731.6z"/>
		</g>
	</g>
</g>
<g>
	<path d="M426.4-208.2c-13.2,0.5-26.1-4.2-35.9-13.1c0,0,0,0,0,0s0,0,0,0c-0.1-0.1-0.2-0.1-0.2-0.2c-0.1-0.1-0.2-0.1-0.3-0.2
		c-0.1,0-0.2-0.1-0.3-0.1c-0.2-0.1-0.4-0.1-0.6,0c-0.1,0-0.2,0-0.3,0.1c-0.1,0.1-0.2,0.1-0.3,0.2c-0.1,0-0.2,0.1-0.2,0.2
		c0,0,0,0,0,0c0,0,0,0,0,0c-9.8,8.9-22.7,13.5-35.9,13.1c-0.5,0-0.9,0.2-1.2,0.5c-0.3,0.3-0.5,0.7-0.5,1.2v39.6
		c0,6.6,2.8,13,7.7,17.5l30,27.3c0.1,0.1,0.2,0.1,0.3,0.2c0.5,0.4,1.1,0.4,1.6,0c0.1-0.1,0.2-0.1,0.3-0.2l30-27.3
		c4.9-4.5,7.7-10.8,7.7-17.5v-39.6c0-0.5-0.2-0.9-0.5-1.2C427.2-208,426.8-208.2,426.4-208.2z M424.7-166.9c0,5.7-2.4,11.1-6.6,15
		l-28.9,26.3l-28.9-26.3c-4.2-3.8-6.6-9.3-6.6-15v-37.9c13,0.1,25.6-4.5,35.5-13c9.9,8.5,22.5,13.1,35.5,13V-166.9z"/>
	<path d="M367.8-171.7c0,11.8,9.6,21.4,21.4,21.4s21.4-9.6,21.4-21.4c0-11.8-9.6-21.4-21.4-21.4
		C377.4-193.1,367.9-183.5,367.8-171.7z M389.2-189.8c10,0,18.1,8.1,18.1,18.1c0,10-8.1,18.1-18.1,18.1s-18.1-8.1-18.1-18.1l0,0
		C371.2-181.7,379.3-189.8,389.2-189.8z"/>
	<path d="M385.1-163.9c0.3,0.3,0.7,0.5,1.2,0.5c0,0,0,0,0.1,0c0.5,0,0.9-0.2,1.2-0.6l11.6-13.3c0.6-0.7,0.5-1.7-0.2-2.4
		c-0.7-0.6-1.7-0.5-2.4,0.2c0,0,0,0,0,0l-10.4,11.9l-4.4-4.4c-0.7-0.6-1.7-0.6-2.4,0c-0.6,0.7-0.6,1.7,0,2.3L385.1-163.9z"/>
</g>
<g>
	<path d="M75.6,51.2c0.1-0.6,0.3-2,0.3-3.5c0-1.5-0.2-2.9-0.3-3.5c0.1-0.5,0.3-2,0.3-3.5c0-1.6-0.2-3.1-0.3-3.6
		c-0.1-5.3-9.8-8.2-19-8.2c-9.2,0-18.9,2.9-19,8.2c-0.1,0.5-0.3,2-0.3,3.5c0,1.5,0.2,2.9,0.3,3.5c-0.1,0.5-0.3,2-0.3,3.5
		c0,1.5,0.2,2.9,0.3,3.5c-0.1,0.6-0.3,1.9-0.3,3.3c-9.1,0.8-16.3,8.4-16.3,17.7c0,9.8,8,17.8,17.8,17.8c6.9,0,12.8-3.9,15.8-9.6
		c0.7,0,1.3,0,2,0c0.3,0,0.6,0,0.9,0c0.3,0,0.7,0,1,0c0.1,0,0.3,0,0.5,0c0,0,0.1,0,0.1,0l1-0.1c0.3,0,0.5,0,0.8-0.1
		c8.7-0.8,14.4-3.8,14.7-7.7c0-0.1,0.3-1.9,0.3-3.7c0-1.5-0.2-3-0.3-3.5c0.2-1.6,0.3-2.8,0.3-3.5c0-0.7-0.1-1.9-0.3-3.5
		c0.2-1.6,0.3-2.8,0.3-3.5C75.9,53.2,75.7,51.8,75.6,51.2z M56.7,31.7c10.1,0,16.3,3.2,16.3,5.6c0,0,0,0,0,0
		c-0.1,2.3-6.2,5.6-16.3,5.6c-10,0-16.2-3.2-16.3-5.5c0,0,0-0.1,0-0.1C40.5,34.9,46.6,31.7,56.7,31.7z M38.9,87.3
		c-8.3,0-15.1-6.8-15.1-15.1s6.8-15.1,15.1-15.1S54,63.9,54,72.2C54,80.6,47.2,87.3,38.9,87.3z M54.5,63.7c-1-1.7-2.2-3.3-3.7-4.6
		c1.8,0.2,3.8,0.4,5.8,0.4c4,0,7.8-0.5,11-1.4c0.7-0.2,1.1-0.9,0.9-1.7c-0.2-0.7-1-1.1-1.7-0.9c-2.9,0.9-6.5,1.3-10.2,1.3
		c-6,0-11.5-1.2-14.5-3.2c0,0,0,0,0,0c-1.1-0.8-1.7-1.5-1.8-2.3c0,0,0,0,0-0.1v0c0,0,0,0,0-0.1c0,0,0-0.1,0-0.1c0,0,0,0,0,0
		c0,0,0,0,0-0.1c-0.1-0.3-0.2-1.4-0.3-2.6c0.2,0.1,0.4,0.3,0.6,0.4c0.2,0.2,0.5,0.2,0.7,0.2c0.4,0,0.8-0.2,1.1-0.6
		c0.4-0.6,0.3-1.4-0.4-1.9c-0.6-0.4-1.7-1.3-1.8-2.3c0,0,0,0,0,0c0,0,0-0.1,0-0.1c0,0,0-0.1,0-0.1c0,0-0.2-1.2-0.3-2.6
		c3.5,2.7,10.2,4.1,16.6,4.1c6.4,0,13.1-1.4,16.6-4.1C73.2,42.8,73,44,73,44c0,0,0,0,0,0c0,0,0,0.1,0,0.1c0,0,0,0.1,0,0.1
		c0,0.7-0.7,1.6-1.8,2.3c-2.9,2-8.5,3.2-14.5,3.2c-4.2,0-8.1-0.6-11.2-1.7c-0.7-0.2-1.5,0.1-1.7,0.8c-0.2,0.7,0.1,1.5,0.8,1.7
		c3.4,1.2,7.7,1.8,12.1,1.8c6.6,0,12.6-1.4,16-3.7c0.2-0.2,0.4-0.3,0.6-0.5c0,1.2-0.2,2.2-0.3,2.5c0,0.1,0,0.2,0,0.3c0,0,0,0,0,0
		c0,0,0,0,0,0c0,0.7-0.7,1.6-1.8,2.4c-0.2,0.1-0.4,0.3-0.7,0.4c-0.6,0.4-0.9,1.2-0.5,1.8c0.2,0.4,0.7,0.7,1.2,0.7
		c0.2,0,0.4-0.1,0.6-0.2c0.3-0.2,0.6-0.3,0.8-0.5c0,0,0.1,0,0.1-0.1c0.2-0.1,0.4-0.3,0.6-0.4c0,0.6-0.1,1.5-0.3,2.6c0,0,0,0,0,0
		c0,0.1,0,0.2,0,0.3c0,0,0,0,0,0c0,0.7-0.6,1.5-1.7,2.3c0,0-0.1,0-0.1,0.1c-2.9,2-8.5,3.2-14.5,3.2C55.9,63.8,55.2,63.7,54.5,63.7z
		 M73,72c0,0.1,0,0.1,0,0.2c0,0,0,0,0,0c-0.1,2.1-4.7,4.6-12.3,5.4c-0.2,0-0.4,0-0.7,0.1l-1,0.1c0,0-0.1,0-0.1,0c-0.1,0-0.3,0-0.4,0
		c-0.3,0-0.6,0-0.9,0c-0.3,0-0.6,0-0.8,0c-0.3,0-0.6,0-0.9,0c0.4-1.4,0.7-2.8,0.8-4.3c0,0,0,0,0.1,0c0.7,0,1.4,0,2.1,0
		c0.7,0,1.3-0.7,1.3-1.4c0-0.7-0.7-1.3-1.4-1.3c-0.7,0-1.4,0-2.1,0c-0.1-1.5-0.4-3-0.9-4.3c0.3,0,0.6,0,1,0c6.5,0,12.5-1.3,15.9-3.6
		c0,0,0.1,0,0.1,0c0,0,0,0,0,0c0.2-0.1,0.4-0.3,0.6-0.4c0,0.6-0.1,1.5-0.3,2.6c0,0.1,0,0.2,0,0.3c0,0,0,0,0,0c0,1-1,1.8-1.8,2.3
		c0,0,0,0-0.1,0c0,0,0,0,0,0c-1.8,1.2-4.6,2.1-8,2.7c-0.7,0.1-1.2,0.8-1.1,1.5c0.1,0.7,0.7,1.1,1.3,1.1c0.1,0,0.1,0,0.2,0
		c3.8-0.6,6.9-1.7,9-3.1c0,0,0.1-0.1,0.1-0.1c0.2-0.2,0.4-0.3,0.6-0.5C73.2,70.7,73,72,73,72z"/>
	<path d="M53.1,17.2l2.8-2.8v9.3c0,0.7,0.6,1.3,1.3,1.3s1.3-0.6,1.3-1.3v-9.1l2.5,2.5c0.3,0.3,0.6,0.4,0.9,0.4
		c0.3,0,0.7-0.1,0.9-0.4c0.5-0.5,0.5-1.4,0-1.9L58,10.4c-0.5-0.5-1.4-0.5-1.9,0l-4.9,4.9c-0.5,0.5-0.5,1.4,0,1.9
		C51.7,17.7,52.6,17.7,53.1,17.2z"/>
	<path d="M36.5,20.3c0.3,0,0.7-0.1,0.9-0.4l2.8-2.8v9.3c0,0.7,0.6,1.3,1.3,1.3c0.7,0,1.3-0.6,1.3-1.3v-9.1l2.5,2.5
		c0.5,0.5,1.4,0.5,1.9,0c0.5-0.5,0.5-1.4,0-1.9l-4.9-4.9c-0.2-0.3-0.6-0.4-0.9-0.4c-0.4,0-0.7,0.1-0.9,0.4l-4.9,4.9
		c-0.5,0.5-0.5,1.4,0,1.9C35.8,20.2,36.2,20.3,36.5,20.3z"/>
	<path d="M78.5,18.1l-4.9-4.9c-0.5-0.5-1.4-0.5-1.9,0l-4.9,4.9c-0.5,0.5-0.5,1.4,0,1.9c0.5,0.5,1.4,0.5,1.9,0l2.8-2.8v9.3
		c0,0.7,0.6,1.3,1.3,1.3c0.7,0,1.3-0.6,1.3-1.3v-9.1l2.5,2.5c0.3,0.3,0.6,0.4,0.9,0.4c0.3,0,0.7-0.1,0.9-0.4
		C79,19.4,79,18.6,78.5,18.1z"/>
	<path d="M41.9,71.4c-0.7-0.5-1.4-0.8-2.2-1c-0.3-0.1-0.6-0.1-0.9-0.1c-0.3,0-0.5,0-0.7-0.1c-0.8-0.3-1.4-1.1-1.4-2
		c0-1.2,0.9-2.1,2.1-2.1H39c1.2,0,2.1,0.9,2.1,2.1c0,0.8,0.6,1.4,1.4,1.4s1.4-0.6,1.4-1.4c0-2.2-1.5-4.1-3.4-4.7v-1.2
		c0-0.8-0.6-1.4-1.4-1.4c-0.8,0-1.4,0.6-1.4,1.4v1.1c-2.2,0.5-3.8,2.5-3.8,4.8c0,2.1,1.3,3.9,3.3,4.6c0.5,0.2,1,0.2,1.4,0.3
		c0.2,0,0.4,0,0.6,0.1c0.4,0.1,0.8,0.3,1.1,0.5c0.7,0.5,1.1,1.2,1.1,1.9c0,1.2-1,2.3-2.3,2.3h-0.3c-1.2,0-2.3-1-2.3-2.3
		c0-0.8-0.6-1.4-1.4-1.4c-0.8,0-1.4,0.6-1.4,1.4c0,2.4,1.7,4.5,4,5v1.5c0,0.8,0.6,1.4,1.4,1.4c0.8,0,1.4-0.6,1.4-1.4v-1.6
		c2.1-0.6,3.6-2.6,3.6-4.9C44.1,74,43.3,72.4,41.9,71.4z"/>
</g>
</svg>
